<svg xmlns="http://www.w3.org/2000/svg" xmlns:xlink="http://www.w3.org/1999/xlink" width="1080" zoomAndPan="magnify" viewBox="0 0 810 1439.999935" height="1920" preserveAspectRatio="xMidYMid meet" version="1.0"><defs><g/><clipPath id="cbbb95d130"><path d="M 152.371094 694.160156 L 640.332031 694.160156 L 640.332031 741.449219 L 152.371094 741.449219 Z M 152.371094 694.160156 " clip-rule="nonzero"/></clipPath><clipPath id="cb61a6df72"><path d="M 636.703125 676.554688 L 723.371094 676.554688 L 723.371094 763.222656 L 636.703125 763.222656 Z M 636.703125 676.554688 " clip-rule="nonzero"/></clipPath></defs><path stroke-linecap="butt" transform="matrix(0.00139203, -0.573793, 0.573973, 0.00139247, 390.52929, 862.675681)" fill="none" stroke-linejoin="miter" d="M 0.00224506 0.997032 L 497.160149 1.002698 " stroke="#000000" stroke-width="2" stroke-opacity="1" stroke-miterlimit="4"/><g fill="#000000" fill-opacity="1"><g transform="translate(133.901957, 806.525447)"><g><path d="M 110.015625 -153.886719 C 110.015625 -106.273438 42 -100.324219 42 -85.019531 C 42 -75.328125 57.644531 -79.238281 76.515625 -51.011719 C 103.382812 -10.710938 108.144531 0 115.964844 0 L 141.984375 0 L 141.984375 -1.699219 C 122.597656 -1.699219 106.613281 -31.796875 90.628906 -55.601562 C 74.308594 -80.089844 43.699219 -75.328125 43.699219 -85.019531 C 43.699219 -96.070312 126 -101.683594 126 -154.226562 C 126 -160.515625 123.957031 -167.148438 120.898438 -170.039062 L 104.0625 -170.039062 C 107.804688 -167.316406 110.015625 -160.175781 110.015625 -153.886719 Z M 5.101562 0 L 50.839844 0 L 50.839844 -1.699219 C 36.21875 -1.699219 35.199219 -13.773438 35.199219 -47.269531 L 35.199219 -122.769531 C 35.199219 -156.265625 36.21875 -168.339844 50.839844 -168.339844 L 50.839844 -170.039062 L 5.101562 -170.039062 L 5.101562 -168.339844 C 19.722656 -168.339844 20.746094 -156.265625 20.746094 -122.769531 L 20.746094 -47.269531 C 20.746094 -13.773438 19.722656 -1.699219 5.101562 -1.699219 Z M 5.101562 0 "/></g></g></g><g fill="#000000" fill-opacity="1"><g transform="translate(327.391884, 806.525447)"><g><path d="M 5.101562 -170.039062 L 5.101562 -147.082031 L 6.800781 -147.082031 C 6.800781 -147.59375 6.632812 -147.082031 6.632812 -147.765625 C 6.632812 -159.15625 28.054688 -168.339844 57.304688 -168.339844 L 57.304688 -47.269531 C 57.304688 -13.773438 56.28125 -1.699219 41.660156 -1.699219 L 41.660156 0 L 86.039062 0 L 86.039062 -1.699219 C 71.417969 -1.699219 71.757812 -13.773438 71.757812 -47.269531 L 71.757812 -168.339844 C 101.003906 -168.339844 122.429688 -159.15625 122.429688 -147.765625 C 122.429688 -147.082031 122.257812 -147.59375 122.257812 -147.082031 L 123.957031 -147.082031 L 123.957031 -170.039062 Z M 5.101562 -170.039062 "/></g></g></g><g fill="#000000" fill-opacity="1"><g transform="translate(506.260056, 806.525447)"><g><path d="M 5.101562 -170.039062 L 5.101562 -168.339844 C 19.722656 -168.339844 20.746094 -156.265625 20.746094 -122.769531 L 20.746094 -47.269531 C 20.746094 -13.773438 19.722656 -1.699219 5.101562 -1.699219 L 5.101562 0 L 51.011719 0 L 51.011719 -1.699219 C 36.386719 -1.699219 22.445312 -21.59375 22.445312 -71.078125 L 22.445312 -160.515625 L 130.078125 3.402344 L 131.78125 3.402344 L 131.78125 -122.769531 C 131.78125 -156.265625 132.800781 -168.339844 147.421875 -168.339844 L 147.421875 -170.039062 L 101.511719 -170.039062 L 101.511719 -168.339844 C 116.136719 -168.339844 130.078125 -148.445312 130.078125 -98.960938 L 130.078125 -24.824219 L 34.859375 -170.039062 Z M 5.101562 -170.039062 "/></g></g></g><g clip-path="url(#cbbb95d130)"><path fill="#e6e6e6" d="M 152.371094 694.160156 L 640.332031 694.160156 L 640.332031 741.449219 L 152.371094 741.449219 Z M 152.371094 694.160156 " fill-opacity="1" fill-rule="nonzero"/></g><g fill="#000000" fill-opacity="1"><g transform="translate(149.815219, 727.59172)"><g><path d="M 9.65625 -9.59375 L 5.484375 -5.359375 L 5.484375 0 L 3.328125 0 L 3.328125 -20.40625 L 5.484375 -20.40625 L 5.484375 -8.078125 L 17.46875 -20.40625 L 19.9375 -20.40625 L 11.109375 -11.171875 L 20.5625 0 L 17.984375 0 Z M 9.65625 -9.59375 "/></g></g></g><g fill="#000000" fill-opacity="1"><g transform="translate(179.842157, 727.59172)"><g><path d="M 3.328125 -20.40625 L 5.484375 -20.40625 L 5.484375 0 L 3.328125 0 Z M 3.328125 -20.40625 "/></g></g></g><g fill="#000000" fill-opacity="1"><g transform="translate(197.948139, 727.59172)"><g><path d="M 12.1875 0.171875 C 10.164062 0.171875 8.34375 -0.269531 6.71875 -1.15625 C 5.09375 -2.050781 3.816406 -3.289062 2.890625 -4.875 C 1.972656 -6.46875 1.515625 -8.242188 1.515625 -10.203125 C 1.515625 -12.171875 1.972656 -13.945312 2.890625 -15.53125 C 3.816406 -17.113281 5.097656 -18.347656 6.734375 -19.234375 C 8.367188 -20.128906 10.195312 -20.578125 12.21875 -20.578125 C 13.726562 -20.578125 15.125 -20.320312 16.40625 -19.8125 C 17.695312 -19.3125 18.789062 -18.578125 19.6875 -17.609375 L 18.3125 -16.234375 C 16.71875 -17.847656 14.707031 -18.65625 12.28125 -18.65625 C 10.664062 -18.65625 9.195312 -18.285156 7.875 -17.546875 C 6.550781 -16.804688 5.515625 -15.796875 4.765625 -14.515625 C 4.015625 -13.234375 3.640625 -11.796875 3.640625 -10.203125 C 3.640625 -8.609375 4.015625 -7.171875 4.765625 -5.890625 C 5.515625 -4.609375 6.550781 -3.597656 7.875 -2.859375 C 9.195312 -2.117188 10.664062 -1.75 12.28125 -1.75 C 14.726562 -1.75 16.738281 -2.566406 18.3125 -4.203125 L 19.6875 -2.828125 C 18.789062 -1.859375 17.695312 -1.113281 16.40625 -0.59375 C 15.113281 -0.0820312 13.707031 0.171875 12.1875 0.171875 Z M 12.1875 0.171875 "/></g></g></g><g fill="#000000" fill-opacity="1"><g transform="translate(228.208252, 727.59172)"><g><path d="M 9.65625 -9.59375 L 5.484375 -5.359375 L 5.484375 0 L 3.328125 0 L 3.328125 -20.40625 L 5.484375 -20.40625 L 5.484375 -8.078125 L 17.46875 -20.40625 L 19.9375 -20.40625 L 11.109375 -11.171875 L 20.5625 0 L 17.984375 0 Z M 9.65625 -9.59375 "/></g></g></g><g fill="#000000" fill-opacity="1"><g transform="translate(258.23519, 727.59172)"><g/></g></g><g fill="#000000" fill-opacity="1"><g transform="translate(275.175293, 727.59172)"><g><path d="M 7.28125 -18.546875 L 0.109375 -18.546875 L 0.109375 -20.40625 L 16.625 -20.40625 L 16.625 -18.546875 L 9.453125 -18.546875 L 9.453125 0 L 7.28125 0 Z M 7.28125 -18.546875 "/></g></g></g><g fill="#000000" fill-opacity="1"><g transform="translate(301.209159, 727.59172)"><g><path d="M 20.375 -20.40625 L 20.375 0 L 18.25 0 L 18.25 -9.421875 L 5.484375 -9.421875 L 5.484375 0 L 3.328125 0 L 3.328125 -20.40625 L 5.484375 -20.40625 L 5.484375 -11.3125 L 18.25 -11.3125 L 18.25 -20.40625 Z M 20.375 -20.40625 "/></g></g></g><g fill="#000000" fill-opacity="1"><g transform="translate(334.209052, 727.59172)"><g><path d="M 17.75 -1.859375 L 17.75 0 L 3.328125 0 L 3.328125 -20.40625 L 17.3125 -20.40625 L 17.3125 -18.546875 L 5.484375 -18.546875 L 5.484375 -11.28125 L 16.03125 -11.28125 L 16.03125 -9.453125 L 5.484375 -9.453125 L 5.484375 -1.859375 Z M 17.75 -1.859375 "/></g></g></g><g fill="#000000" fill-opacity="1"><g transform="translate(363.011828, 727.59172)"><g/></g></g><g fill="#000000" fill-opacity="1"><g transform="translate(379.95192, 727.59172)"><g><path d="M 20.375 -20.40625 L 20.375 0 L 18.609375 0 L 5.484375 -16.5625 L 5.484375 0 L 3.328125 0 L 3.328125 -20.40625 L 5.109375 -20.40625 L 18.25 -3.84375 L 18.25 -20.40625 Z M 20.375 -20.40625 "/></g></g></g><g fill="#000000" fill-opacity="1"><g transform="translate(412.951826, 727.59172)"><g><path d="M 16.125 -5.453125 L 4.75 -5.453125 L 2.296875 0 L 0.0625 0 L 9.390625 -20.40625 L 11.515625 -20.40625 L 20.84375 0 L 18.578125 0 Z M 15.34375 -7.203125 L 10.4375 -18.171875 L 5.546875 -7.203125 Z M 15.34375 -7.203125 "/></g></g></g><g fill="#000000" fill-opacity="1"><g transform="translate(443.153669, 727.59172)"><g><path d="M 17.265625 0 L 12.59375 -6.5625 C 12.070312 -6.5 11.53125 -6.46875 10.96875 -6.46875 L 5.484375 -6.46875 L 5.484375 0 L 3.328125 0 L 3.328125 -20.40625 L 10.96875 -20.40625 C 13.570312 -20.40625 15.609375 -19.78125 17.078125 -18.53125 C 18.554688 -17.289062 19.296875 -15.582031 19.296875 -13.40625 C 19.296875 -11.8125 18.890625 -10.460938 18.078125 -9.359375 C 17.273438 -8.265625 16.128906 -7.476562 14.640625 -7 L 19.625 0 Z M 10.90625 -8.3125 C 12.925781 -8.3125 14.46875 -8.753906 15.53125 -9.640625 C 16.601562 -10.535156 17.140625 -11.789062 17.140625 -13.40625 C 17.140625 -15.0625 16.601562 -16.332031 15.53125 -17.21875 C 14.46875 -18.101562 12.925781 -18.546875 10.90625 -18.546875 L 5.484375 -18.546875 L 5.484375 -8.3125 Z M 10.90625 -8.3125 "/></g></g></g><g fill="#000000" fill-opacity="1"><g transform="translate(473.530382, 727.59172)"><g><path d="M 17.265625 0 L 12.59375 -6.5625 C 12.070312 -6.5 11.53125 -6.46875 10.96875 -6.46875 L 5.484375 -6.46875 L 5.484375 0 L 3.328125 0 L 3.328125 -20.40625 L 10.96875 -20.40625 C 13.570312 -20.40625 15.609375 -19.78125 17.078125 -18.53125 C 18.554688 -17.289062 19.296875 -15.582031 19.296875 -13.40625 C 19.296875 -11.8125 18.890625 -10.460938 18.078125 -9.359375 C 17.273438 -8.265625 16.128906 -7.476562 14.640625 -7 L 19.625 0 Z M 10.90625 -8.3125 C 12.925781 -8.3125 14.46875 -8.753906 15.53125 -9.640625 C 16.601562 -10.535156 17.140625 -11.789062 17.140625 -13.40625 C 17.140625 -15.0625 16.601562 -16.332031 15.53125 -17.21875 C 14.46875 -18.101562 12.925781 -18.546875 10.90625 -18.546875 L 5.484375 -18.546875 L 5.484375 -8.3125 Z M 10.90625 -8.3125 "/></g></g></g><g fill="#000000" fill-opacity="1"><g transform="translate(503.907095, 727.59172)"><g><path d="M 16.125 -5.453125 L 4.75 -5.453125 L 2.296875 0 L 0.0625 0 L 9.390625 -20.40625 L 11.515625 -20.40625 L 20.84375 0 L 18.578125 0 Z M 15.34375 -7.203125 L 10.4375 -18.171875 L 5.546875 -7.203125 Z M 15.34375 -7.203125 "/></g></g></g><g fill="#000000" fill-opacity="1"><g transform="translate(534.108937, 727.59172)"><g><path d="M 7.28125 -18.546875 L 0.109375 -18.546875 L 0.109375 -20.40625 L 16.625 -20.40625 L 16.625 -18.546875 L 9.453125 -18.546875 L 9.453125 0 L 7.28125 0 Z M 7.28125 -18.546875 "/></g></g></g><g fill="#000000" fill-opacity="1"><g transform="translate(560.142792, 727.59172)"><g><path d="M 3.328125 -20.40625 L 5.484375 -20.40625 L 5.484375 0 L 3.328125 0 Z M 3.328125 -20.40625 "/></g></g></g><g fill="#000000" fill-opacity="1"><g transform="translate(578.248762, 727.59172)"><g><path d="M 20.296875 -20.40625 L 11.25 0 L 9.125 0 L 0.09375 -20.40625 L 2.421875 -20.40625 L 10.234375 -2.6875 L 18.109375 -20.40625 Z M 20.296875 -20.40625 "/></g></g></g><g fill="#000000" fill-opacity="1"><g transform="translate(607.896817, 727.59172)"><g><path d="M 17.75 -1.859375 L 17.75 0 L 3.328125 0 L 3.328125 -20.40625 L 17.3125 -20.40625 L 17.3125 -18.546875 L 5.484375 -18.546875 L 5.484375 -11.28125 L 16.03125 -11.28125 L 16.03125 -9.453125 L 5.484375 -9.453125 L 5.484375 -1.859375 Z M 17.75 -1.859375 "/></g></g></g><g fill="#000000" fill-opacity="1"><g transform="translate(636.699604, 727.59172)"><g><path d="M 3.09375 0.140625 C 2.664062 0.140625 2.300781 -0.0078125 2 -0.3125 C 1.695312 -0.625 1.546875 -1.003906 1.546875 -1.453125 C 1.546875 -1.898438 1.695312 -2.273438 2 -2.578125 C 2.300781 -2.878906 2.664062 -3.03125 3.09375 -3.03125 C 3.519531 -3.03125 3.890625 -2.878906 4.203125 -2.578125 C 4.515625 -2.273438 4.671875 -1.898438 4.671875 -1.453125 C 4.671875 -1.003906 4.515625 -0.625 4.203125 -0.3125 C 3.890625 -0.0078125 3.519531 0.140625 3.09375 0.140625 Z M 3.09375 0.140625 "/></g></g></g><g clip-path="url(#cb61a6df72)"><path fill="#d23d29" d="M 723.371094 704.757812 L 723.371094 732.992188 L 695.136719 732.992188 L 695.136719 763.222656 L 666.917969 763.222656 L 666.917969 732.992188 L 636.703125 732.992188 L 636.703125 704.757812 L 666.917969 704.757812 L 666.917969 676.554688 L 695.152344 676.554688 L 695.152344 704.757812 Z M 723.371094 704.757812 " fill-opacity="1" fill-rule="nonzero"/></g></svg>