<svg xmlns="http://www.w3.org/2000/svg" xmlns:xlink="http://www.w3.org/1999/xlink" width="500" zoomAndPan="magnify" viewBox="0 0 375 374.999991" height="500" preserveAspectRatio="xMidYMid meet" version="1.0"><defs><g/><clipPath id="29cafe616b"><path d="M 39.90625 171.867188 L 335.09375 171.867188 L 335.09375 200.476562 L 39.90625 200.476562 Z M 39.90625 171.867188 " clip-rule="nonzero"/></clipPath></defs><path stroke-linecap="butt" transform="matrix(0.00181827, -0.749489, 0.749998, 0.00181951, 183.94697, 273.807404)" fill="none" stroke-linejoin="miter" d="M -0.000378381 0.497792 L 230.166998 0.502282 " stroke="#000000" stroke-width="1" stroke-opacity="1" stroke-miterlimit="4"/><g fill="#000000" fill-opacity="1"><g transform="translate(28.733029, 239.842992)"><g><path d="M 66.554688 -93.089844 C 66.554688 -64.289062 25.40625 -60.691406 25.40625 -51.433594 C 25.40625 -45.570312 34.871094 -47.933594 46.289062 -30.859375 C 62.542969 -6.480469 65.421875 0 70.152344 0 L 85.890625 0 L 85.890625 -1.027344 C 74.164062 -1.027344 64.496094 -19.234375 54.828125 -33.636719 C 44.953125 -48.449219 26.4375 -45.570312 26.4375 -51.433594 C 26.4375 -58.117188 76.222656 -61.511719 76.222656 -93.296875 C 76.222656 -97.101562 74.988281 -101.113281 73.136719 -102.863281 L 62.953125 -102.863281 C 65.214844 -101.21875 66.554688 -96.898438 66.554688 -93.089844 Z M 3.085938 0 L 30.757812 0 L 30.757812 -1.027344 C 21.910156 -1.027344 21.292969 -8.332031 21.292969 -28.597656 L 21.292969 -74.269531 C 21.292969 -94.53125 21.910156 -101.835938 30.757812 -101.835938 L 30.757812 -102.863281 L 3.085938 -102.863281 L 3.085938 -101.835938 C 11.933594 -101.835938 12.550781 -94.53125 12.550781 -74.269531 L 12.550781 -28.597656 C 12.550781 -8.332031 11.933594 -1.027344 3.085938 -1.027344 Z M 3.085938 0 "/></g></g></g><g fill="#000000" fill-opacity="1"><g transform="translate(145.783432, 239.842992)"><g><path d="M 3.085938 -102.863281 L 3.085938 -88.976562 L 4.113281 -88.976562 C 4.113281 -89.285156 4.011719 -88.976562 4.011719 -89.386719 C 4.011719 -96.28125 16.972656 -101.835938 34.664062 -101.835938 L 34.664062 -28.597656 C 34.664062 -8.332031 34.046875 -1.027344 25.203125 -1.027344 L 25.203125 0 L 52.050781 0 L 52.050781 -1.027344 C 43.203125 -1.027344 43.410156 -8.332031 43.410156 -28.597656 L 43.410156 -101.835938 C 61.101562 -101.835938 74.0625 -96.28125 74.0625 -89.386719 C 74.0625 -88.976562 73.960938 -89.285156 73.960938 -88.976562 L 74.988281 -88.976562 L 74.988281 -102.863281 Z M 3.085938 -102.863281 "/></g></g></g><g fill="#000000" fill-opacity="1"><g transform="translate(253.988506, 239.842992)"><g><path d="M 3.085938 -102.863281 L 3.085938 -101.835938 C 11.933594 -101.835938 12.550781 -94.53125 12.550781 -74.269531 L 12.550781 -28.597656 C 12.550781 -8.332031 11.933594 -1.027344 3.085938 -1.027344 L 3.085938 0 L 30.859375 0 L 30.859375 -1.027344 C 22.011719 -1.027344 13.578125 -13.0625 13.578125 -42.996094 L 13.578125 -97.101562 L 78.691406 2.058594 L 79.71875 2.058594 L 79.71875 -74.269531 C 79.71875 -94.53125 80.335938 -101.835938 89.183594 -101.835938 L 89.183594 -102.863281 L 61.410156 -102.863281 L 61.410156 -101.835938 C 70.257812 -101.835938 78.691406 -89.800781 78.691406 -59.867188 L 78.691406 -15.019531 L 21.085938 -102.863281 Z M 3.085938 -102.863281 "/></g></g></g><g clip-path="url(#29cafe616b)"><path fill="#e6e6e6" d="M 39.90625 171.867188 L 335.09375 171.867188 L 335.09375 200.476562 L 39.90625 200.476562 Z M 39.90625 171.867188 " fill-opacity="1" fill-rule="nonzero"/></g><g fill="#000000" fill-opacity="1"><g transform="translate(38.359654, 192.092606)"><g><path d="M 5.84375 -5.796875 L 3.3125 -3.25 L 3.3125 0 L 2.015625 0 L 2.015625 -12.34375 L 3.3125 -12.34375 L 3.3125 -4.890625 L 10.5625 -12.34375 L 12.0625 -12.34375 L 6.71875 -6.75 L 12.4375 0 L 10.890625 0 Z M 5.84375 -5.796875 "/></g></g></g><g fill="#000000" fill-opacity="1"><g transform="translate(56.524247, 192.092606)"><g><path d="M 2.015625 -12.34375 L 3.3125 -12.34375 L 3.3125 0 L 2.015625 0 Z M 2.015625 -12.34375 "/></g></g></g><g fill="#000000" fill-opacity="1"><g transform="translate(67.477338, 192.092606)"><g><path d="M 7.375 0.109375 C 6.15625 0.109375 5.050781 -0.160156 4.0625 -0.703125 C 3.082031 -1.242188 2.3125 -1.992188 1.75 -2.953125 C 1.195312 -3.910156 0.921875 -4.984375 0.921875 -6.171875 C 0.921875 -7.359375 1.195312 -8.429688 1.75 -9.390625 C 2.3125 -10.347656 3.085938 -11.097656 4.078125 -11.640625 C 5.066406 -12.179688 6.171875 -12.453125 7.390625 -12.453125 C 8.304688 -12.453125 9.148438 -12.296875 9.921875 -11.984375 C 10.703125 -11.679688 11.363281 -11.238281 11.90625 -10.65625 L 11.078125 -9.828125 C 10.109375 -10.804688 8.890625 -11.296875 7.421875 -11.296875 C 6.453125 -11.296875 5.566406 -11.070312 4.765625 -10.625 C 3.960938 -10.175781 3.332031 -9.5625 2.875 -8.78125 C 2.425781 -8.007812 2.203125 -7.140625 2.203125 -6.171875 C 2.203125 -5.210938 2.425781 -4.34375 2.875 -3.5625 C 3.332031 -2.789062 3.960938 -2.179688 4.765625 -1.734375 C 5.566406 -1.285156 6.453125 -1.0625 7.421875 -1.0625 C 8.910156 -1.0625 10.128906 -1.554688 11.078125 -2.546875 L 11.90625 -1.71875 C 11.363281 -1.125 10.703125 -0.671875 9.921875 -0.359375 C 9.140625 -0.046875 8.289062 0.109375 7.375 0.109375 Z M 7.375 0.109375 "/></g></g></g><g fill="#000000" fill-opacity="1"><g transform="translate(85.782989, 192.092606)"><g><path d="M 5.84375 -5.796875 L 3.3125 -3.25 L 3.3125 0 L 2.015625 0 L 2.015625 -12.34375 L 3.3125 -12.34375 L 3.3125 -4.890625 L 10.5625 -12.34375 L 12.0625 -12.34375 L 6.71875 -6.75 L 12.4375 0 L 10.890625 0 Z M 5.84375 -5.796875 "/></g></g></g><g fill="#000000" fill-opacity="1"><g transform="translate(103.947582, 192.092606)"><g/></g></g><g fill="#000000" fill-opacity="1"><g transform="translate(114.195383, 192.092606)"><g><path d="M 4.40625 -11.21875 L 0.078125 -11.21875 L 0.078125 -12.34375 L 10.0625 -12.34375 L 10.0625 -11.21875 L 5.71875 -11.21875 L 5.71875 0 L 4.40625 0 Z M 4.40625 -11.21875 "/></g></g></g><g fill="#000000" fill-opacity="1"><g transform="translate(129.944393, 192.092606)"><g><path d="M 12.328125 -12.34375 L 12.328125 0 L 11.046875 0 L 11.046875 -5.703125 L 3.3125 -5.703125 L 3.3125 0 L 2.015625 0 L 2.015625 -12.34375 L 3.3125 -12.34375 L 3.3125 -6.84375 L 11.046875 -6.84375 L 11.046875 -12.34375 Z M 12.328125 -12.34375 "/></g></g></g><g fill="#000000" fill-opacity="1"><g transform="translate(149.907455, 192.092606)"><g><path d="M 10.75 -1.125 L 10.75 0 L 2.015625 0 L 2.015625 -12.34375 L 10.484375 -12.34375 L 10.484375 -11.21875 L 3.3125 -11.21875 L 3.3125 -6.828125 L 9.703125 -6.828125 L 9.703125 -5.71875 L 3.3125 -5.71875 L 3.3125 -1.125 Z M 10.75 -1.125 "/></g></g></g><g fill="#000000" fill-opacity="1"><g transform="translate(167.3315, 192.092606)"><g/></g></g><g fill="#000000" fill-opacity="1"><g transform="translate(177.579294, 192.092606)"><g><path d="M 12.328125 -12.34375 L 12.328125 0 L 11.25 0 L 3.3125 -10.015625 L 3.3125 0 L 2.015625 0 L 2.015625 -12.34375 L 3.09375 -12.34375 L 11.046875 -2.328125 L 11.046875 -12.34375 Z M 12.328125 -12.34375 "/></g></g></g><g fill="#000000" fill-opacity="1"><g transform="translate(197.542364, 192.092606)"><g><path d="M 9.75 -3.296875 L 2.875 -3.296875 L 1.390625 0 L 0.03125 0 L 5.6875 -12.34375 L 6.96875 -12.34375 L 12.609375 0 L 11.234375 0 Z M 9.28125 -4.359375 L 6.3125 -10.984375 L 3.359375 -4.359375 Z M 9.28125 -4.359375 "/></g></g></g><g fill="#000000" fill-opacity="1"><g transform="translate(215.812764, 192.092606)"><g><path d="M 10.4375 0 L 7.625 -3.96875 C 7.300781 -3.9375 6.972656 -3.921875 6.640625 -3.921875 L 3.3125 -3.921875 L 3.3125 0 L 2.015625 0 L 2.015625 -12.34375 L 6.640625 -12.34375 C 8.210938 -12.34375 9.441406 -11.96875 10.328125 -11.21875 C 11.222656 -10.46875 11.671875 -9.429688 11.671875 -8.109375 C 11.671875 -7.148438 11.425781 -6.335938 10.9375 -5.671875 C 10.457031 -5.003906 9.765625 -4.523438 8.859375 -4.234375 L 11.875 0 Z M 6.59375 -5.03125 C 7.820312 -5.03125 8.757812 -5.300781 9.40625 -5.84375 C 10.050781 -6.382812 10.375 -7.140625 10.375 -8.109375 C 10.375 -9.109375 10.050781 -9.875 9.40625 -10.40625 C 8.757812 -10.945312 7.820312 -11.21875 6.59375 -11.21875 L 3.3125 -11.21875 L 3.3125 -5.03125 Z M 6.59375 -5.03125 "/></g></g></g><g fill="#000000" fill-opacity="1"><g transform="translate(234.188951, 192.092606)"><g><path d="M 10.4375 0 L 7.625 -3.96875 C 7.300781 -3.9375 6.972656 -3.921875 6.640625 -3.921875 L 3.3125 -3.921875 L 3.3125 0 L 2.015625 0 L 2.015625 -12.34375 L 6.640625 -12.34375 C 8.210938 -12.34375 9.441406 -11.96875 10.328125 -11.21875 C 11.222656 -10.46875 11.671875 -9.429688 11.671875 -8.109375 C 11.671875 -7.148438 11.425781 -6.335938 10.9375 -5.671875 C 10.457031 -5.003906 9.765625 -4.523438 8.859375 -4.234375 L 11.875 0 Z M 6.59375 -5.03125 C 7.820312 -5.03125 8.757812 -5.300781 9.40625 -5.84375 C 10.050781 -6.382812 10.375 -7.140625 10.375 -8.109375 C 10.375 -9.109375 10.050781 -9.875 9.40625 -10.40625 C 8.757812 -10.945312 7.820312 -11.21875 6.59375 -11.21875 L 3.3125 -11.21875 L 3.3125 -5.03125 Z M 6.59375 -5.03125 "/></g></g></g><g fill="#000000" fill-opacity="1"><g transform="translate(252.565138, 192.092606)"><g><path d="M 9.75 -3.296875 L 2.875 -3.296875 L 1.390625 0 L 0.03125 0 L 5.6875 -12.34375 L 6.96875 -12.34375 L 12.609375 0 L 11.234375 0 Z M 9.28125 -4.359375 L 6.3125 -10.984375 L 3.359375 -4.359375 Z M 9.28125 -4.359375 "/></g></g></g><g fill="#000000" fill-opacity="1"><g transform="translate(270.835538, 192.092606)"><g><path d="M 4.40625 -11.21875 L 0.078125 -11.21875 L 0.078125 -12.34375 L 10.0625 -12.34375 L 10.0625 -11.21875 L 5.71875 -11.21875 L 5.71875 0 L 4.40625 0 Z M 4.40625 -11.21875 "/></g></g></g><g fill="#000000" fill-opacity="1"><g transform="translate(286.584542, 192.092606)"><g><path d="M 2.015625 -12.34375 L 3.3125 -12.34375 L 3.3125 0 L 2.015625 0 Z M 2.015625 -12.34375 "/></g></g></g><g fill="#000000" fill-opacity="1"><g transform="translate(297.537626, 192.092606)"><g><path d="M 12.28125 -12.34375 L 6.8125 0 L 5.515625 0 L 0.046875 -12.34375 L 1.46875 -12.34375 L 6.1875 -1.625 L 10.953125 -12.34375 Z M 12.28125 -12.34375 "/></g></g></g><g fill="#000000" fill-opacity="1"><g transform="translate(315.473017, 192.092606)"><g><path d="M 10.75 -1.125 L 10.75 0 L 2.015625 0 L 2.015625 -12.34375 L 10.484375 -12.34375 L 10.484375 -11.21875 L 3.3125 -11.21875 L 3.3125 -6.828125 L 9.703125 -6.828125 L 9.703125 -5.71875 L 3.3125 -5.71875 L 3.3125 -1.125 Z M 10.75 -1.125 "/></g></g></g><g fill="#000000" fill-opacity="1"><g transform="translate(332.897068, 192.092606)"><g><path d="M 1.875 0.09375 C 1.613281 0.09375 1.390625 0 1.203125 -0.1875 C 1.023438 -0.375 0.9375 -0.601562 0.9375 -0.875 C 0.9375 -1.144531 1.023438 -1.367188 1.203125 -1.546875 C 1.390625 -1.734375 1.613281 -1.828125 1.875 -1.828125 C 2.132812 -1.828125 2.359375 -1.734375 2.546875 -1.546875 C 2.734375 -1.367188 2.828125 -1.144531 2.828125 -0.875 C 2.828125 -0.601562 2.734375 -0.375 2.546875 -0.1875 C 2.359375 0 2.132812 0.09375 1.875 0.09375 Z M 1.875 0.09375 "/></g></g></g></svg>