<svg xmlns="http://www.w3.org/2000/svg" xmlns:xlink="http://www.w3.org/1999/xlink" width="1584" zoomAndPan="magnify" viewBox="0 0 1188 296.999993" height="396" preserveAspectRatio="xMidYMid meet" version="1.0"><defs><g/></defs><g fill="#050a30" fill-opacity="1"><g transform="translate(142.271229, 173.978961)"><g><path d="M 100.796875 -3.140625 C 101.191406 -2.660156 101.390625 -2.097656 101.390625 -1.453125 C 101.390625 -0.484375 100.664062 0 99.21875 0 L 91.71875 0 C 90.507812 0 89.5 -0.523438 88.6875 -1.578125 L 62.3125 -37.03125 L 25.890625 -37.03125 L 25.890625 -1.578125 C 25.890625 -0.523438 25.367188 0 24.328125 0 L 16.703125 0 C 15.648438 0 15.125 -0.523438 15.125 -1.578125 L 15.125 -83.125 C 15.125 -84.175781 15.648438 -84.703125 16.703125 -84.703125 L 24.328125 -84.703125 C 25.367188 -84.703125 25.890625 -84.175781 25.890625 -83.125 L 25.890625 -47.3125 L 61.59375 -47.3125 L 88.578125 -83.125 C 89.378906 -84.175781 90.382812 -84.703125 91.59375 -84.703125 L 98.734375 -84.703125 C 100.109375 -84.703125 100.796875 -84.175781 100.796875 -83.125 C 100.796875 -82.5625 100.59375 -82.035156 100.1875 -81.546875 L 71.390625 -42.953125 Z M 100.796875 -3.140625 "/></g></g></g><g fill="#050a30" fill-opacity="1"><g transform="translate(249.108156, 173.978961)"><g><path d="M 53.96875 -75.390625 L 53.96875 -9.4375 L 86.640625 -9.4375 C 87.679688 -9.4375 88.203125 -8.875 88.203125 -7.75 L 88.203125 -1.578125 C 88.203125 -0.523438 87.679688 0 86.640625 0 L 10.640625 0 C 9.597656 0 9.078125 -0.523438 9.078125 -1.578125 L 9.078125 -7.75 C 9.078125 -8.875 9.597656 -9.4375 10.640625 -9.4375 L 43.3125 -9.4375 L 43.3125 -75.390625 L 10.640625 -75.390625 C 9.597656 -75.390625 9.078125 -75.910156 9.078125 -76.953125 L 9.078125 -83.125 C 9.078125 -84.175781 9.597656 -84.703125 10.640625 -84.703125 L 86.640625 -84.703125 C 87.679688 -84.703125 88.203125 -84.175781 88.203125 -83.125 L 88.203125 -76.953125 C 88.203125 -75.910156 87.679688 -75.390625 86.640625 -75.390625 Z M 53.96875 -75.390625 "/></g></g></g><g fill="#050a30" fill-opacity="1"><g transform="translate(346.386628, 173.978961)"><g><path d="M 36.296875 0 C 21.378906 0 13.921875 -7.460938 13.921875 -22.390625 L 13.921875 -62.3125 C 13.921875 -77.238281 21.378906 -84.703125 36.296875 -84.703125 L 91.109375 -84.703125 C 106.035156 -84.703125 113.5 -77.238281 113.5 -62.3125 L 113.5 -56.984375 C 113.5 -55.941406 112.929688 -55.421875 111.796875 -55.421875 L 104.296875 -55.421875 C 103.253906 -55.421875 102.734375 -55.941406 102.734375 -56.984375 L 102.734375 -61.46875 C 102.734375 -66.382812 101.722656 -69.851562 99.703125 -71.875 C 97.679688 -73.894531 94.210938 -74.90625 89.296875 -74.90625 L 38.109375 -74.90625 C 33.347656 -74.90625 29.921875 -73.851562 27.828125 -71.75 C 25.734375 -69.65625 24.6875 -66.226562 24.6875 -61.46875 L 24.6875 -23.234375 C 24.6875 -18.472656 25.734375 -15.039062 27.828125 -12.9375 C 29.921875 -10.84375 33.347656 -9.796875 38.109375 -9.796875 L 89.296875 -9.796875 C 94.210938 -9.796875 97.679688 -10.800781 99.703125 -12.8125 C 101.722656 -14.832031 102.734375 -18.304688 102.734375 -23.234375 L 102.734375 -27.703125 C 102.734375 -28.835938 103.253906 -29.40625 104.296875 -29.40625 L 111.796875 -29.40625 C 112.929688 -29.40625 113.5 -28.835938 113.5 -27.703125 L 113.5 -22.390625 C 113.5 -7.460938 106.035156 0 91.109375 0 Z M 36.296875 0 "/></g></g></g><g fill="#050a30" fill-opacity="1"><g transform="translate(473.187432, 173.978961)"><g><path d="M 100.796875 -3.140625 C 101.191406 -2.660156 101.390625 -2.097656 101.390625 -1.453125 C 101.390625 -0.484375 100.664062 0 99.21875 0 L 91.71875 0 C 90.507812 0 89.5 -0.523438 88.6875 -1.578125 L 62.3125 -37.03125 L 25.890625 -37.03125 L 25.890625 -1.578125 C 25.890625 -0.523438 25.367188 0 24.328125 0 L 16.703125 0 C 15.648438 0 15.125 -0.523438 15.125 -1.578125 L 15.125 -83.125 C 15.125 -84.175781 15.648438 -84.703125 16.703125 -84.703125 L 24.328125 -84.703125 C 25.367188 -84.703125 25.890625 -84.175781 25.890625 -83.125 L 25.890625 -47.3125 L 61.59375 -47.3125 L 88.578125 -83.125 C 89.378906 -84.175781 90.382812 -84.703125 91.59375 -84.703125 L 98.734375 -84.703125 C 100.109375 -84.703125 100.796875 -84.175781 100.796875 -83.125 C 100.796875 -82.5625 100.59375 -82.035156 100.1875 -81.546875 L 71.390625 -42.953125 Z M 100.796875 -3.140625 "/></g></g></g><g fill="#050a30" fill-opacity="1"><g transform="translate(580.024334, 173.978961)"><g/></g></g><g fill="#050a30" fill-opacity="1"><g transform="translate(621.162018, 173.978961)"><g><path d="M 29.53125 0 C 23.875 0 19.453125 -1.59375 16.265625 -4.78125 C 13.085938 -7.96875 11.5 -12.382812 11.5 -18.03125 L 11.5 -34.484375 C 11.5 -40.210938 13.085938 -44.648438 16.265625 -47.796875 C 19.453125 -50.941406 23.875 -52.515625 29.53125 -52.515625 L 43.3125 -52.515625 L 43.3125 -53.125 L 16.703125 -73.8125 C 15.648438 -74.78125 15.125 -75.828125 15.125 -76.953125 L 15.125 -83.125 C 15.125 -84.175781 15.648438 -84.703125 16.703125 -84.703125 L 102.734375 -84.703125 C 103.859375 -84.703125 104.421875 -84.175781 104.421875 -83.125 L 104.421875 -76.953125 C 104.421875 -75.910156 103.859375 -75.390625 102.734375 -75.390625 L 32.0625 -75.390625 L 32.0625 -74.78125 L 93.53125 -26.375 L 94.140625 -26.375 L 94.140625 -54.6875 C 94.140625 -55.738281 94.664062 -56.265625 95.71875 -56.265625 L 102.734375 -56.265625 C 103.859375 -56.265625 104.421875 -55.738281 104.421875 -54.6875 L 104.421875 -18.03125 L 123.171875 -3.140625 C 123.984375 -2.578125 124.390625 -1.929688 124.390625 -1.203125 C 124.390625 -0.398438 123.820312 0 122.6875 0 L 112.890625 0 C 111.679688 0 110.550781 -0.398438 109.5 -1.203125 L 101.765625 -7.375 L 101.15625 -7.375 C 99.707031 -4.875 97.691406 -3.019531 95.109375 -1.8125 C 92.523438 -0.601562 89.054688 0 84.703125 0 Z M 83.25 -8.953125 C 88.332031 -8.953125 91.519531 -10.6875 92.8125 -14.15625 L 55.296875 -43.5625 L 33.15625 -43.5625 C 29.445312 -43.5625 26.703125 -42.691406 24.921875 -40.953125 C 23.148438 -39.222656 22.265625 -36.460938 22.265625 -32.671875 L 22.265625 -19.84375 C 22.265625 -16.132812 23.148438 -13.390625 24.921875 -11.609375 C 26.703125 -9.835938 29.445312 -8.953125 33.15625 -8.953125 Z M 83.25 -8.953125 "/></g></g></g><g fill="#050a30" fill-opacity="1"><g transform="translate(744.333018, 173.978961)"><g/></g></g><g fill="#050a30" fill-opacity="1"><g transform="translate(785.470702, 173.978961)"><g><path d="M 36.296875 0 C 21.378906 0 13.921875 -7.460938 13.921875 -22.390625 L 13.921875 -62.3125 C 13.921875 -77.238281 21.378906 -84.703125 36.296875 -84.703125 L 91.109375 -84.703125 C 106.035156 -84.703125 113.5 -77.238281 113.5 -62.3125 L 113.5 -56.984375 C 113.5 -55.941406 112.929688 -55.421875 111.796875 -55.421875 L 104.296875 -55.421875 C 103.253906 -55.421875 102.734375 -55.941406 102.734375 -56.984375 L 102.734375 -61.46875 C 102.734375 -66.382812 101.722656 -69.851562 99.703125 -71.875 C 97.679688 -73.894531 94.210938 -74.90625 89.296875 -74.90625 L 38.109375 -74.90625 C 33.347656 -74.90625 29.921875 -73.851562 27.828125 -71.75 C 25.734375 -69.65625 24.6875 -66.226562 24.6875 -61.46875 L 24.6875 -23.234375 C 24.6875 -18.472656 25.734375 -15.039062 27.828125 -12.9375 C 29.921875 -10.84375 33.347656 -9.796875 38.109375 -9.796875 L 89.296875 -9.796875 C 94.210938 -9.796875 97.679688 -10.800781 99.703125 -12.8125 C 101.722656 -14.832031 102.734375 -18.304688 102.734375 -23.234375 L 102.734375 -27.703125 C 102.734375 -28.835938 103.253906 -29.40625 104.296875 -29.40625 L 111.796875 -29.40625 C 112.929688 -29.40625 113.5 -28.835938 113.5 -27.703125 L 113.5 -22.390625 C 113.5 -7.460938 106.035156 0 91.109375 0 Z M 36.296875 0 "/></g></g></g><g fill="#050a30" fill-opacity="1"><g transform="translate(912.271469, 173.978961)"><g><path d="M 36.296875 0 C 21.378906 0 13.921875 -7.460938 13.921875 -22.390625 L 13.921875 -62.3125 C 13.921875 -77.238281 21.378906 -84.703125 36.296875 -84.703125 L 97.15625 -84.703125 C 112.082031 -84.703125 119.546875 -77.238281 119.546875 -62.3125 L 119.546875 -22.390625 C 119.546875 -7.460938 112.082031 0 97.15625 0 Z M 95.34375 -9.796875 C 100.101562 -9.796875 103.53125 -10.84375 105.625 -12.9375 C 107.726562 -15.039062 108.78125 -18.472656 108.78125 -23.234375 L 108.78125 -61.46875 C 108.78125 -66.226562 107.726562 -69.65625 105.625 -71.75 C 103.53125 -73.851562 100.101562 -74.90625 95.34375 -74.90625 L 38.109375 -74.90625 C 33.347656 -74.90625 29.921875 -73.851562 27.828125 -71.75 C 25.734375 -69.65625 24.6875 -66.226562 24.6875 -61.46875 L 24.6875 -23.234375 C 24.6875 -18.472656 25.734375 -15.039062 27.828125 -12.9375 C 29.921875 -10.84375 33.347656 -9.796875 38.109375 -9.796875 Z M 95.34375 -9.796875 "/></g></g></g><g fill="#050a30" fill-opacity="1"><g transform="translate(956.069664, 169.123277)"><g><path d="M 10.78125 12.390625 L 1.484375 12.390625 L 33.796875 -91.640625 L 43.09375 -91.640625 Z M 10.78125 12.390625 "/></g></g></g><g fill="#050a30" fill-opacity="1"><g transform="translate(202.376329, 235.914384)"><g><path d="M 13.46875 0.359375 C 11.84375 0.359375 10.316406 0.046875 8.890625 -0.578125 C 7.472656 -1.203125 6.234375 -2.0625 5.171875 -3.15625 C 4.117188 -4.25 3.285156 -5.523438 2.671875 -6.984375 C 2.066406 -8.441406 1.765625 -10.015625 1.765625 -11.703125 C 1.765625 -13.390625 2.070312 -14.976562 2.6875 -16.46875 C 3.3125 -17.96875 4.160156 -19.273438 5.234375 -20.390625 C 6.304688 -21.503906 7.554688 -22.378906 8.984375 -23.015625 C 10.421875 -23.648438 11.953125 -23.96875 13.578125 -23.96875 C 15.335938 -23.96875 16.976562 -23.597656 18.5 -22.859375 C 20.03125 -22.117188 21.347656 -21.113281 22.453125 -19.84375 L 20.59375 -18.265625 C 19.675781 -19.316406 18.609375 -20.125 17.390625 -20.6875 C 16.179688 -21.25 14.894531 -21.53125 13.53125 -21.53125 C 12.21875 -21.53125 11.007812 -21.285156 9.90625 -20.796875 C 8.800781 -20.304688 7.835938 -19.625 7.015625 -18.75 C 6.191406 -17.882812 5.550781 -16.859375 5.09375 -15.671875 C 4.632812 -14.484375 4.40625 -13.195312 4.40625 -11.8125 C 4.40625 -10.425781 4.632812 -9.140625 5.09375 -7.953125 C 5.550781 -6.765625 6.191406 -5.734375 7.015625 -4.859375 C 7.835938 -3.992188 8.8125 -3.3125 9.9375 -2.8125 C 11.0625 -2.320312 12.285156 -2.078125 13.609375 -2.078125 C 15.085938 -2.078125 16.429688 -2.367188 17.640625 -2.953125 C 18.847656 -3.546875 19.863281 -4.335938 20.6875 -5.328125 L 20.6875 -10.40625 L 13.578125 -10.40625 L 13.578125 -12.6875 L 23.15625 -12.6875 L 23.15625 -4.859375 C 22.007812 -3.191406 20.59375 -1.90625 18.90625 -1 C 17.226562 -0.09375 15.414062 0.359375 13.46875 0.359375 Z M 13.46875 0.359375 "/></g></g></g><g fill="#050a30" fill-opacity="1"><g transform="translate(238.397657, 235.914384)"><g><path d="M 3.171875 -23.625 L 5.640625 -23.625 L 5.640625 -13.046875 L 18.328125 -13.046875 L 18.328125 -23.625 L 20.796875 -23.625 L 20.796875 0 L 18.328125 0 L 18.328125 -10.75 L 5.640625 -10.75 L 5.640625 0 L 3.171875 0 Z M 3.171875 -23.625 "/></g></g></g><g fill="#050a30" fill-opacity="1"><g transform="translate(272.938772, 235.914384)"><g><path d="M 13.578125 0.359375 C 11.953125 0.359375 10.421875 0.0390625 8.984375 -0.59375 C 7.554688 -1.226562 6.304688 -2.097656 5.234375 -3.203125 C 4.160156 -4.304688 3.3125 -5.59375 2.6875 -7.0625 C 2.070312 -8.53125 1.765625 -10.113281 1.765625 -11.8125 C 1.765625 -13.476562 2.070312 -15.050781 2.6875 -16.53125 C 3.3125 -18.007812 4.160156 -19.300781 5.234375 -20.40625 C 6.304688 -21.507812 7.554688 -22.378906 8.984375 -23.015625 C 10.421875 -23.648438 11.953125 -23.96875 13.578125 -23.96875 C 15.191406 -23.96875 16.710938 -23.648438 18.140625 -23.015625 C 19.578125 -22.378906 20.832031 -21.507812 21.90625 -20.40625 C 22.976562 -19.300781 23.820312 -18.015625 24.4375 -16.546875 C 25.0625 -15.078125 25.375 -13.5 25.375 -11.8125 C 25.375 -10.144531 25.0625 -8.578125 24.4375 -7.109375 C 23.820312 -5.640625 22.976562 -4.351562 21.90625 -3.25 C 20.832031 -2.144531 19.578125 -1.265625 18.140625 -0.609375 C 16.710938 0.0351562 15.191406 0.359375 13.578125 0.359375 Z M 13.578125 -2.078125 C 14.867188 -2.078125 16.078125 -2.320312 17.203125 -2.8125 C 18.328125 -3.3125 19.296875 -3.992188 20.109375 -4.859375 C 20.921875 -5.734375 21.5625 -6.765625 22.03125 -7.953125 C 22.5 -9.140625 22.734375 -10.425781 22.734375 -11.8125 C 22.734375 -13.195312 22.5 -14.484375 22.03125 -15.671875 C 21.5625 -16.859375 20.921875 -17.882812 20.109375 -18.75 C 19.296875 -19.625 18.328125 -20.304688 17.203125 -20.796875 C 16.078125 -21.285156 14.867188 -21.53125 13.578125 -21.53125 C 12.253906 -21.53125 11.035156 -21.285156 9.921875 -20.796875 C 8.804688 -20.304688 7.84375 -19.625 7.03125 -18.75 C 6.21875 -17.882812 5.578125 -16.859375 5.109375 -15.671875 C 4.640625 -14.484375 4.40625 -13.195312 4.40625 -11.8125 C 4.40625 -10.425781 4.640625 -9.140625 5.109375 -7.953125 C 5.578125 -6.765625 6.21875 -5.734375 7.03125 -4.859375 C 7.84375 -3.992188 8.804688 -3.3125 9.921875 -2.8125 C 11.035156 -2.320312 12.253906 -2.078125 13.578125 -2.078125 Z M 13.578125 -2.078125 "/></g></g></g><g fill="#050a30" fill-opacity="1"><g transform="translate(310.651765, 235.914384)"><g><path d="M 8.84375 0.359375 C 7.25 0.359375 5.773438 -0.0195312 4.421875 -0.78125 C 3.066406 -1.550781 1.945312 -2.65625 1.0625 -4.09375 L 2.96875 -5.640625 C 4.601562 -3.148438 6.578125 -1.90625 8.890625 -1.90625 C 10.273438 -1.90625 11.390625 -2.28125 12.234375 -3.03125 C 13.078125 -3.78125 13.5 -4.78125 13.5 -6.03125 C 13.5 -7.113281 13.113281 -8.039062 12.34375 -8.8125 C 11.582031 -9.582031 10.359375 -10.3125 8.671875 -11 C 6.535156 -11.820312 4.988281 -12.785156 4.03125 -13.890625 C 3.082031 -14.992188 2.609375 -16.3125 2.609375 -17.84375 C 2.609375 -18.757812 2.757812 -19.59375 3.0625 -20.34375 C 3.375 -21.09375 3.8125 -21.738281 4.375 -22.28125 C 4.9375 -22.820312 5.609375 -23.238281 6.390625 -23.53125 C 7.179688 -23.820312 8.0625 -23.96875 9.03125 -23.96875 C 11.726562 -23.96875 13.957031 -22.769531 15.71875 -20.375 L 13.8125 -18.828125 C 13.113281 -19.804688 12.367188 -20.523438 11.578125 -20.984375 C 10.796875 -21.441406 9.929688 -21.671875 8.984375 -21.671875 C 7.785156 -21.671875 6.832031 -21.34375 6.125 -20.6875 C 5.425781 -20.03125 5.078125 -19.148438 5.078125 -18.046875 C 5.078125 -16.992188 5.429688 -16.09375 6.140625 -15.34375 C 6.859375 -14.601562 8.054688 -13.90625 9.734375 -13.25 C 11.867188 -12.425781 13.441406 -11.441406 14.453125 -10.296875 C 15.460938 -9.160156 15.96875 -7.804688 15.96875 -6.234375 C 15.96875 -5.273438 15.789062 -4.390625 15.4375 -3.578125 C 15.082031 -2.765625 14.585938 -2.0625 13.953125 -1.46875 C 13.316406 -0.882812 12.566406 -0.429688 11.703125 -0.109375 C 10.835938 0.203125 9.882812 0.359375 8.84375 0.359375 Z M 8.84375 0.359375 "/></g></g></g><g fill="#050a30" fill-opacity="1"><g transform="translate(338.954855, 235.914384)"><g><path d="M 8.8125 -21.328125 L 1.0625 -21.328125 L 1.0625 -23.625 L 19.03125 -23.625 L 19.03125 -21.328125 L 11.28125 -21.328125 L 11.28125 0 L 8.8125 0 Z M 8.8125 -21.328125 "/></g></g></g><g fill="#050a30" fill-opacity="1"><g transform="translate(369.619223, 235.914384)"><g><path d="M 1.0625 -23.625 L 3.671875 -23.625 L 9.65625 -5.53125 L 16.25 -23.625 L 16.953125 -23.625 L 23.578125 -5.8125 L 29.5 -23.625 L 31.96875 -23.625 L 23.9375 0.703125 L 23.40625 0.703125 L 16.53125 -17.796875 L 9.796875 0.703125 L 9.09375 0.703125 Z M 1.0625 -23.625 "/></g></g></g><g fill="#050a30" fill-opacity="1"><g transform="translate(413.217813, 235.914384)"><g><path d="M 3.171875 -23.625 L 8.8125 -23.625 C 9.988281 -23.625 11.078125 -23.453125 12.078125 -23.109375 C 13.078125 -22.765625 13.929688 -22.28125 14.640625 -21.65625 C 15.359375 -21.039062 15.914062 -20.304688 16.3125 -19.453125 C 16.71875 -18.609375 16.921875 -17.679688 16.921875 -16.671875 C 16.921875 -15.847656 16.789062 -15.078125 16.53125 -14.359375 C 16.269531 -13.648438 15.90625 -13.003906 15.4375 -12.421875 C 14.96875 -11.847656 14.40625 -11.351562 13.75 -10.9375 C 13.09375 -10.53125 12.375 -10.222656 11.59375 -10.015625 L 18.328125 0 L 15.375 0 L 8.8125 -9.734375 L 5.640625 -9.734375 L 5.640625 0 L 3.171875 0 Z M 8.8125 -12.015625 C 10.5 -12.015625 11.859375 -12.4375 12.890625 -13.28125 C 13.929688 -14.132812 14.453125 -15.273438 14.453125 -16.703125 C 14.453125 -18.117188 13.929688 -19.242188 12.890625 -20.078125 C 11.859375 -20.910156 10.5 -21.328125 8.8125 -21.328125 L 5.640625 -21.328125 L 5.640625 -12.015625 Z M 8.8125 -12.015625 "/></g></g></g><g fill="#050a30" fill-opacity="1"><g transform="translate(443.52974, 235.914384)"><g><path d="M 3.171875 -23.625 L 5.640625 -23.625 L 5.640625 0 L 3.171875 0 Z M 3.171875 -23.625 "/></g></g></g><g fill="#050a30" fill-opacity="1"><g transform="translate(462.916307, 235.914384)"><g><path d="M 8.8125 -21.328125 L 1.0625 -21.328125 L 1.0625 -23.625 L 19.03125 -23.625 L 19.03125 -21.328125 L 11.28125 -21.328125 L 11.28125 0 L 8.8125 0 Z M 8.8125 -21.328125 "/></g></g></g><g fill="#050a30" fill-opacity="1"><g transform="translate(493.580675, 235.914384)"><g><path d="M 3.171875 -23.625 L 15.328125 -23.625 L 15.328125 -21.328125 L 5.640625 -21.328125 L 5.640625 -13.390625 L 13.046875 -13.390625 L 13.046875 -11.109375 L 5.640625 -11.109375 L 5.640625 -2.296875 L 15.515625 -2.296875 L 15.515625 0 L 3.171875 0 Z M 3.171875 -23.625 "/></g></g></g><g fill="#050a30" fill-opacity="1"><g transform="translate(521.778033, 235.914384)"><g><path d="M 3.171875 -23.625 L 8.8125 -23.625 C 9.988281 -23.625 11.078125 -23.453125 12.078125 -23.109375 C 13.078125 -22.765625 13.929688 -22.28125 14.640625 -21.65625 C 15.359375 -21.039062 15.914062 -20.304688 16.3125 -19.453125 C 16.71875 -18.609375 16.921875 -17.679688 16.921875 -16.671875 C 16.921875 -15.847656 16.789062 -15.078125 16.53125 -14.359375 C 16.269531 -13.648438 15.90625 -13.003906 15.4375 -12.421875 C 14.96875 -11.847656 14.40625 -11.351562 13.75 -10.9375 C 13.09375 -10.53125 12.375 -10.222656 11.59375 -10.015625 L 18.328125 0 L 15.375 0 L 8.8125 -9.734375 L 5.640625 -9.734375 L 5.640625 0 L 3.171875 0 Z M 8.8125 -12.015625 C 10.5 -12.015625 11.859375 -12.4375 12.890625 -13.28125 C 13.929688 -14.132812 14.453125 -15.273438 14.453125 -16.703125 C 14.453125 -18.117188 13.929688 -19.242188 12.890625 -20.078125 C 11.859375 -20.910156 10.5 -21.328125 8.8125 -21.328125 L 5.640625 -21.328125 L 5.640625 -12.015625 Z M 8.8125 -12.015625 "/></g></g></g><g fill="#050a30" fill-opacity="1"><g transform="translate(552.089985, 235.914384)"><g><path d="M 8.84375 0.359375 C 7.25 0.359375 5.773438 -0.0195312 4.421875 -0.78125 C 3.066406 -1.550781 1.945312 -2.65625 1.0625 -4.09375 L 2.96875 -5.640625 C 4.601562 -3.148438 6.578125 -1.90625 8.890625 -1.90625 C 10.273438 -1.90625 11.390625 -2.28125 12.234375 -3.03125 C 13.078125 -3.78125 13.5 -4.78125 13.5 -6.03125 C 13.5 -7.113281 13.113281 -8.039062 12.34375 -8.8125 C 11.582031 -9.582031 10.359375 -10.3125 8.671875 -11 C 6.535156 -11.820312 4.988281 -12.785156 4.03125 -13.890625 C 3.082031 -14.992188 2.609375 -16.3125 2.609375 -17.84375 C 2.609375 -18.757812 2.757812 -19.59375 3.0625 -20.34375 C 3.375 -21.09375 3.8125 -21.738281 4.375 -22.28125 C 4.9375 -22.820312 5.609375 -23.238281 6.390625 -23.53125 C 7.179688 -23.820312 8.0625 -23.96875 9.03125 -23.96875 C 11.726562 -23.96875 13.957031 -22.769531 15.71875 -20.375 L 13.8125 -18.828125 C 13.113281 -19.804688 12.367188 -20.523438 11.578125 -20.984375 C 10.796875 -21.441406 9.929688 -21.671875 8.984375 -21.671875 C 7.785156 -21.671875 6.832031 -21.34375 6.125 -20.6875 C 5.425781 -20.03125 5.078125 -19.148438 5.078125 -18.046875 C 5.078125 -16.992188 5.429688 -16.09375 6.140625 -15.34375 C 6.859375 -14.601562 8.054688 -13.90625 9.734375 -13.25 C 11.867188 -12.425781 13.441406 -11.441406 14.453125 -10.296875 C 15.460938 -9.160156 15.96875 -7.804688 15.96875 -6.234375 C 15.96875 -5.273438 15.789062 -4.390625 15.4375 -3.578125 C 15.082031 -2.765625 14.585938 -2.0625 13.953125 -1.46875 C 13.316406 -0.882812 12.566406 -0.429688 11.703125 -0.109375 C 10.835938 0.203125 9.882812 0.359375 8.84375 0.359375 Z M 8.84375 0.359375 "/></g></g></g><g fill="#050a30" fill-opacity="1"><g transform="translate(580.393089, 235.914384)"><g/></g></g><g fill="#050a30" fill-opacity="1"><g transform="translate(598.722383, 235.914384)"><g><path d="M 10.046875 -24.328125 L 10.75 -24.328125 L 19.734375 0 L 17.03125 0 L 14.8125 -6.203125 L 5.84375 -6.203125 L 3.625 0 L 1.0625 0 Z M 14 -8.5 L 10.328125 -18.71875 L 6.65625 -8.5 Z M 14 -8.5 "/></g></g></g><g fill="#050a30" fill-opacity="1"><g transform="translate(630.091608, 235.914384)"><g><path d="M 5.5625 -18.359375 L 5.5625 0 L 3.171875 0 L 3.171875 -24.328125 L 3.875 -24.328125 L 19.8125 -5.25 L 19.8125 -23.625 L 22.203125 -23.625 L 22.203125 0.703125 L 21.5 0.703125 Z M 5.5625 -18.359375 "/></g></g></g><g fill="#050a30" fill-opacity="1"><g transform="translate(666.04246, 235.914384)"><g><path d="M 3.171875 -23.625 L 10.890625 -23.625 C 12.703125 -23.625 14.367188 -23.328125 15.890625 -22.734375 C 17.421875 -22.148438 18.742188 -21.328125 19.859375 -20.265625 C 20.972656 -19.210938 21.847656 -17.960938 22.484375 -16.515625 C 23.117188 -15.066406 23.4375 -13.5 23.4375 -11.8125 C 23.4375 -10.113281 23.117188 -8.539062 22.484375 -7.09375 C 21.847656 -5.65625 20.972656 -4.410156 19.859375 -3.359375 C 18.742188 -2.316406 17.421875 -1.492188 15.890625 -0.890625 C 14.367188 -0.296875 12.703125 0 10.890625 0 L 3.171875 0 Z M 10.859375 -2.296875 C 12.285156 -2.296875 13.609375 -2.53125 14.828125 -3 C 16.054688 -3.46875 17.109375 -4.125 17.984375 -4.96875 C 18.867188 -5.8125 19.554688 -6.816406 20.046875 -7.984375 C 20.546875 -9.148438 20.796875 -10.425781 20.796875 -11.8125 C 20.796875 -13.195312 20.546875 -14.46875 20.046875 -15.625 C 19.554688 -16.789062 18.867188 -17.796875 17.984375 -18.640625 C 17.109375 -19.492188 16.054688 -20.15625 14.828125 -20.625 C 13.609375 -21.09375 12.285156 -21.328125 10.859375 -21.328125 L 5.640625 -21.328125 L 5.640625 -2.296875 Z M 10.859375 -2.296875 "/></g></g></g><g fill="#050a30" fill-opacity="1"><g transform="translate(701.817105, 235.914384)"><g/></g></g><g fill="#050a30" fill-opacity="1"><g transform="translate(720.146425, 235.914384)"><g><path d="M 3.171875 -24.328125 L 3.875 -24.328125 L 14.34375 -9.484375 L 24.671875 -24.328125 L 25.375 -24.328125 L 25.375 0 L 22.90625 0 L 22.90625 -17.65625 L 14.625 -5.8125 L 13.921875 -5.8125 L 5.640625 -17.484375 L 5.640625 0 L 3.171875 0 Z M 3.171875 -24.328125 "/></g></g></g><g fill="#050a30" fill-opacity="1"><g transform="translate(759.269169, 235.914384)"><g><path d="M 10.046875 -24.328125 L 10.75 -24.328125 L 19.734375 0 L 17.03125 0 L 14.8125 -6.203125 L 5.84375 -6.203125 L 3.625 0 L 1.0625 0 Z M 14 -8.5 L 10.328125 -18.71875 L 6.65625 -8.5 Z M 14 -8.5 "/></g></g></g><g fill="#050a30" fill-opacity="1"><g transform="translate(790.638418, 235.914384)"><g><path d="M 3.171875 -23.625 L 8.8125 -23.625 C 9.988281 -23.625 11.078125 -23.453125 12.078125 -23.109375 C 13.078125 -22.765625 13.929688 -22.28125 14.640625 -21.65625 C 15.359375 -21.039062 15.914062 -20.304688 16.3125 -19.453125 C 16.71875 -18.609375 16.921875 -17.679688 16.921875 -16.671875 C 16.921875 -15.847656 16.789062 -15.078125 16.53125 -14.359375 C 16.269531 -13.648438 15.90625 -13.003906 15.4375 -12.421875 C 14.96875 -11.847656 14.40625 -11.351562 13.75 -10.9375 C 13.09375 -10.53125 12.375 -10.222656 11.59375 -10.015625 L 18.328125 0 L 15.375 0 L 8.8125 -9.734375 L 5.640625 -9.734375 L 5.640625 0 L 3.171875 0 Z M 8.8125 -12.015625 C 10.5 -12.015625 11.859375 -12.4375 12.890625 -13.28125 C 13.929688 -14.132812 14.453125 -15.273438 14.453125 -16.703125 C 14.453125 -18.117188 13.929688 -19.242188 12.890625 -20.078125 C 11.859375 -20.910156 10.5 -21.328125 8.8125 -21.328125 L 5.640625 -21.328125 L 5.640625 -12.015625 Z M 8.8125 -12.015625 "/></g></g></g><g fill="#050a30" fill-opacity="1"><g transform="translate(820.95037, 235.914384)"><g><path d="M 3.171875 -23.625 L 5.640625 -23.625 L 5.640625 -12.765625 L 15.296875 -23.625 L 18.359375 -23.625 L 8.28125 -12.296875 L 18.828125 0 L 15.546875 0 L 5.640625 -11.5625 L 5.640625 0 L 3.171875 0 Z M 3.171875 -23.625 "/></g></g></g><g fill="#050a30" fill-opacity="1"><g transform="translate(850.52221, 235.914384)"><g><path d="M 3.171875 -23.625 L 15.328125 -23.625 L 15.328125 -21.328125 L 5.640625 -21.328125 L 5.640625 -13.390625 L 13.046875 -13.390625 L 13.046875 -11.109375 L 5.640625 -11.109375 L 5.640625 -2.296875 L 15.515625 -2.296875 L 15.515625 0 L 3.171875 0 Z M 3.171875 -23.625 "/></g></g></g><g fill="#050a30" fill-opacity="1"><g transform="translate(878.719568, 235.914384)"><g><path d="M 8.8125 -21.328125 L 1.0625 -21.328125 L 1.0625 -23.625 L 19.03125 -23.625 L 19.03125 -21.328125 L 11.28125 -21.328125 L 11.28125 0 L 8.8125 0 Z M 8.8125 -21.328125 "/></g></g></g><g fill="#050a30" fill-opacity="1"><g transform="translate(909.383935, 235.914384)"><g><path d="M 3.171875 -23.625 L 15.328125 -23.625 L 15.328125 -21.328125 L 5.640625 -21.328125 L 5.640625 -13.390625 L 13.046875 -13.390625 L 13.046875 -11.109375 L 5.640625 -11.109375 L 5.640625 -2.296875 L 15.515625 -2.296875 L 15.515625 0 L 3.171875 0 Z M 3.171875 -23.625 "/></g></g></g><g fill="#050a30" fill-opacity="1"><g transform="translate(937.581293, 235.914384)"><g><path d="M 3.171875 -23.625 L 8.8125 -23.625 C 9.988281 -23.625 11.078125 -23.453125 12.078125 -23.109375 C 13.078125 -22.765625 13.929688 -22.28125 14.640625 -21.65625 C 15.359375 -21.039062 15.914062 -20.304688 16.3125 -19.453125 C 16.71875 -18.609375 16.921875 -17.679688 16.921875 -16.671875 C 16.921875 -15.847656 16.789062 -15.078125 16.53125 -14.359375 C 16.269531 -13.648438 15.90625 -13.003906 15.4375 -12.421875 C 14.96875 -11.847656 14.40625 -11.351562 13.75 -10.9375 C 13.09375 -10.53125 12.375 -10.222656 11.59375 -10.015625 L 18.328125 0 L 15.375 0 L 8.8125 -9.734375 L 5.640625 -9.734375 L 5.640625 0 L 3.171875 0 Z M 8.8125 -12.015625 C 10.5 -12.015625 11.859375 -12.4375 12.890625 -13.28125 C 13.929688 -14.132812 14.453125 -15.273438 14.453125 -16.703125 C 14.453125 -18.117188 13.929688 -19.242188 12.890625 -20.078125 C 11.859375 -20.910156 10.5 -21.328125 8.8125 -21.328125 L 5.640625 -21.328125 L 5.640625 -12.015625 Z M 8.8125 -12.015625 "/></g></g></g><g fill="#050a30" fill-opacity="1"><g transform="translate(967.893246, 235.914384)"><g><path d="M 8.84375 0.359375 C 7.25 0.359375 5.773438 -0.0195312 4.421875 -0.78125 C 3.066406 -1.550781 1.945312 -2.65625 1.0625 -4.09375 L 2.96875 -5.640625 C 4.601562 -3.148438 6.578125 -1.90625 8.890625 -1.90625 C 10.273438 -1.90625 11.390625 -2.28125 12.234375 -3.03125 C 13.078125 -3.78125 13.5 -4.78125 13.5 -6.03125 C 13.5 -7.113281 13.113281 -8.039062 12.34375 -8.8125 C 11.582031 -9.582031 10.359375 -10.3125 8.671875 -11 C 6.535156 -11.820312 4.988281 -12.785156 4.03125 -13.890625 C 3.082031 -14.992188 2.609375 -16.3125 2.609375 -17.84375 C 2.609375 -18.757812 2.757812 -19.59375 3.0625 -20.34375 C 3.375 -21.09375 3.8125 -21.738281 4.375 -22.28125 C 4.9375 -22.820312 5.609375 -23.238281 6.390625 -23.53125 C 7.179688 -23.820312 8.0625 -23.96875 9.03125 -23.96875 C 11.726562 -23.96875 13.957031 -22.769531 15.71875 -20.375 L 13.8125 -18.828125 C 13.113281 -19.804688 12.367188 -20.523438 11.578125 -20.984375 C 10.796875 -21.441406 9.929688 -21.671875 8.984375 -21.671875 C 7.785156 -21.671875 6.832031 -21.34375 6.125 -20.6875 C 5.425781 -20.03125 5.078125 -19.148438 5.078125 -18.046875 C 5.078125 -16.992188 5.429688 -16.09375 6.140625 -15.34375 C 6.859375 -14.601562 8.054688 -13.90625 9.734375 -13.25 C 11.867188 -12.425781 13.441406 -11.441406 14.453125 -10.296875 C 15.460938 -9.160156 15.96875 -7.804688 15.96875 -6.234375 C 15.96875 -5.273438 15.789062 -4.390625 15.4375 -3.578125 C 15.082031 -2.765625 14.585938 -2.0625 13.953125 -1.46875 C 13.316406 -0.882812 12.566406 -0.429688 11.703125 -0.109375 C 10.835938 0.203125 9.882812 0.359375 8.84375 0.359375 Z M 8.84375 0.359375 "/></g></g></g></svg>