<svg xmlns="http://www.w3.org/2000/svg" xmlns:xlink="http://www.w3.org/1999/xlink" width="500" zoomAndPan="magnify" viewBox="0 0 375 374.999991" height="500" preserveAspectRatio="xMidYMid meet" version="1.0"><defs><g/><clipPath id="3d596796b7"><path d="M 146.109375 152 L 229.15625 152 L 229.15625 199.257812 L 146.109375 199.257812 Z M 146.109375 152 " clip-rule="nonzero"/></clipPath><clipPath id="5a6cd3d692"><path d="M 93 50 L 204 50 L 204 232 L 93 232 Z M 93 50 " clip-rule="nonzero"/></clipPath><clipPath id="590f8207ef"><path d="M 64.019531 96.285156 L 239.898438 23.871094 L 310.613281 195.625 L 134.734375 268.039062 Z M 64.019531 96.285156 " clip-rule="nonzero"/></clipPath><clipPath id="635b2aded2"><path d="M 64.019531 96.285156 L 239.898438 23.871094 L 310.613281 195.625 L 134.734375 268.039062 Z M 64.019531 96.285156 " clip-rule="nonzero"/></clipPath><clipPath id="540773ec8e"><path d="M 167 60 L 282 60 L 282 242 L 167 242 Z M 167 60 " clip-rule="nonzero"/></clipPath><clipPath id="d6d8a80612"><path d="M 64.019531 96.285156 L 239.898438 23.871094 L 310.613281 195.625 L 134.734375 268.039062 Z M 64.019531 96.285156 " clip-rule="nonzero"/></clipPath><clipPath id="2d905610d4"><path d="M 64.019531 96.285156 L 239.898438 23.871094 L 310.613281 195.625 L 134.734375 268.039062 Z M 64.019531 96.285156 " clip-rule="nonzero"/></clipPath></defs><g fill="#23268b" fill-opacity="1"><g transform="translate(26.116886, 264.118058)"><g><path d="M 8.5625 -15.75 C 10.1875 -15.75 11.585938 -15.367188 12.765625 -14.609375 C 13.941406 -13.859375 14.835938 -12.882812 15.453125 -11.6875 C 16.066406 -10.488281 16.375 -9.226562 16.375 -7.90625 C 16.375 -5.601562 15.660156 -3.722656 14.234375 -2.265625 C 12.804688 -0.816406 10.910156 -0.0625 8.546875 0 L 0.75 0 L 0.609375 -0.75 C 1.066406 -1.050781 1.738281 -1.378906 2.625 -1.734375 L 2.625 -14.140625 L 0.953125 -14.359375 L 0.96875 -15.5625 C 3.238281 -15.6875 5.769531 -15.75 8.5625 -15.75 Z M 8.015625 -1.96875 C 9.367188 -1.96875 10.46875 -2.507812 11.3125 -3.59375 C 12.15625 -4.6875 12.578125 -6.078125 12.578125 -7.765625 C 12.578125 -9.066406 12.304688 -10.285156 11.765625 -11.421875 C 11.222656 -12.554688 10.519531 -13.382812 9.65625 -13.90625 L 6.21875 -13.5625 L 6.21875 -2.25 C 6.863281 -2.0625 7.460938 -1.96875 8.015625 -1.96875 Z M 8.015625 -1.96875 "/></g></g></g><g fill="#23268b" fill-opacity="1"><g transform="translate(44.664826, 264.118058)"><g><path d="M 13.40625 -4.703125 C 13.4375 -3.160156 13.34375 -1.59375 13.125 0 L 0.75 0 L 0.609375 -0.75 C 1.066406 -1.050781 1.738281 -1.378906 2.625 -1.734375 L 2.625 -14.140625 L 0.875 -14.359375 L 0.90625 -15.5625 L 13.25 -15.5625 C 13.320312 -14.269531 13.195312 -12.773438 12.875 -11.078125 L 10.875 -11.078125 L 10.484375 -13.40625 L 6.21875 -13.71875 L 6.21875 -8.640625 L 11.3125 -9.03125 L 11.3125 -6.640625 L 6.21875 -6.859375 L 6.21875 -1.96875 L 10.640625 -2.265625 L 11.421875 -4.84375 Z M 13.40625 -4.703125 "/></g></g></g><g fill="#23268b" fill-opacity="1"><g transform="translate(61.107312, 264.118058)"><g><path d="M 23.328125 -14.8125 L 21.53125 -13.90625 L 17.546875 0.03125 C 16.609375 0.195312 15.488281 0.296875 14.1875 0.328125 L 11.65625 -8 L 11.140625 -5.25 L 9.515625 0.03125 C 8.566406 0.195312 7.453125 0.296875 6.171875 0.328125 L 1.734375 -14.125 L 0.046875 -14.359375 L 0.078125 -15.5625 L 7.265625 -15.5625 L 7.40625 -14.8125 C 6.945312 -14.53125 6.300781 -14.210938 5.46875 -13.859375 L 7.71875 -5.5625 L 7.90625 -2.40625 L 8.015625 -2.40625 L 10.625 -11.421875 L 9.65625 -14.640625 L 13.078125 -15.421875 L 15.65625 -5.765625 L 15.921875 -2.40625 L 15.96875 -2.40625 L 19.140625 -14.03125 L 16.84375 -14.359375 L 16.859375 -15.5625 L 23.1875 -15.5625 Z M 23.328125 -14.8125 "/></g></g></g><g fill="#23268b" fill-opacity="1"><g transform="translate(86.231856, 264.118058)"><g><path d="M 0.75 -7.28125 L 1.15625 -8.09375 L 7.953125 -8.09375 L 9.078125 -6.296875 L 8.6875 -5.46875 L 1.890625 -5.46875 Z M 0.75 -7.28125 "/></g></g></g><g fill="#23268b" fill-opacity="1"><g transform="translate(98.179531, 264.118058)"><g><path d="M 15.046875 -15.703125 L 15.0625 -15.015625 C 15.0625 -13.390625 14.929688 -11.957031 14.671875 -10.71875 L 12.78125 -10.71875 L 12.421875 -13.703125 L 9.4375 -13.9375 L 9.4375 -1.5625 L 11.859375 -1.203125 L 11.828125 0 L 3.578125 0 L 3.4375 -0.75 C 3.78125 -0.976562 4.582031 -1.335938 5.84375 -1.828125 L 5.84375 -13.9375 L 2.84375 -13.703125 L 2.484375 -10.71875 L 0.59375 -10.71875 C 0.320312 -11.957031 0.1875 -13.390625 0.1875 -15.015625 L 0.21875 -15.703125 L 7.671875 -15.609375 Z M 15.046875 -15.703125 "/></g></g></g><g fill="#23268b" fill-opacity="1"><g transform="translate(115.284392, 264.118058)"><g><path d="M 13.40625 -4.703125 C 13.4375 -3.160156 13.34375 -1.59375 13.125 0 L 0.75 0 L 0.609375 -0.75 C 1.066406 -1.050781 1.738281 -1.378906 2.625 -1.734375 L 2.625 -14.140625 L 0.875 -14.359375 L 0.90625 -15.5625 L 13.25 -15.5625 C 13.320312 -14.269531 13.195312 -12.773438 12.875 -11.078125 L 10.875 -11.078125 L 10.484375 -13.40625 L 6.21875 -13.71875 L 6.21875 -8.640625 L 11.3125 -9.03125 L 11.3125 -6.640625 L 6.21875 -6.859375 L 6.21875 -1.96875 L 10.640625 -2.265625 L 11.421875 -4.84375 Z M 13.40625 -4.703125 "/></g></g></g><g fill="#23268b" fill-opacity="1"><g transform="translate(131.726868, 264.118058)"><g><path d="M 13.484375 -1.703125 L 8.640625 0.375 C 6.691406 0.4375 5.09375 0.09375 3.84375 -0.65625 C 2.59375 -1.414062 1.679688 -2.40625 1.109375 -3.625 C 0.546875 -4.851562 0.265625 -6.175781 0.265625 -7.59375 C 0.265625 -9.039062 0.5625 -10.410156 1.15625 -11.703125 C 1.757812 -13.003906 2.660156 -14.050781 3.859375 -14.84375 C 5.054688 -15.632812 6.503906 -16.03125 8.203125 -16.03125 C 10.035156 -16.03125 11.660156 -15.535156 13.078125 -14.546875 C 13.109375 -14.046875 13.078125 -13.367188 12.984375 -12.515625 C 12.890625 -11.660156 12.75 -10.921875 12.5625 -10.296875 L 10.390625 -10.296875 L 9.8125 -13.25 C 8.726562 -13.71875 7.539062 -13.953125 6.25 -13.953125 C 5.476562 -13.367188 4.894531 -12.546875 4.5 -11.484375 C 4.113281 -10.429688 3.921875 -9.320312 3.921875 -8.15625 C 3.921875 -6.28125 4.378906 -4.789062 5.296875 -3.6875 C 6.210938 -2.582031 7.453125 -2.054688 9.015625 -2.109375 L 12.921875 -3.390625 Z M 13.484375 -1.703125 "/></g></g></g><g fill="#23268b" fill-opacity="1"><g transform="translate(147.341368, 264.118058)"><g><path d="M 18.375 -1.203125 L 18.359375 0 L 10.71875 0 L 10.578125 -0.75 C 11.035156 -1.050781 11.703125 -1.378906 12.578125 -1.734375 L 12.578125 -6.71875 L 6.21875 -6.71875 L 6.21875 -1.515625 L 8.390625 -1.203125 L 8.375 0 L 0.75 0 L 0.609375 -0.75 C 1.066406 -1.050781 1.738281 -1.378906 2.625 -1.734375 L 2.625 -14.09375 L 0.796875 -14.359375 L 0.828125 -15.5625 L 8.0625 -15.5625 L 8.203125 -14.8125 C 7.617188 -14.457031 6.957031 -14.132812 6.21875 -13.84375 L 6.21875 -8.75 L 12.578125 -8.75 L 12.578125 -14.09375 L 10.765625 -14.359375 L 10.78125 -15.5625 L 18.046875 -15.5625 L 18.1875 -14.8125 C 17.6875 -14.488281 17.019531 -14.164062 16.1875 -13.84375 L 16.1875 -1.515625 Z M 18.375 -1.203125 "/></g></g></g><g fill="#23268b" fill-opacity="1"><g transform="translate(168.184013, 264.118058)"><g/></g></g><g fill="#23268b" fill-opacity="1"><g transform="translate(176.299276, 264.118058)"><g><path d="M 13.40625 -4.703125 C 13.4375 -3.160156 13.34375 -1.59375 13.125 0 L 0.75 0 L 0.609375 -0.75 C 1.066406 -1.050781 1.738281 -1.378906 2.625 -1.734375 L 2.625 -14.140625 L 0.875 -14.359375 L 0.90625 -15.5625 L 13.25 -15.5625 C 13.320312 -14.269531 13.195312 -12.773438 12.875 -11.078125 L 10.875 -11.078125 L 10.484375 -13.40625 L 6.21875 -13.71875 L 6.21875 -8.640625 L 11.3125 -9.03125 L 11.3125 -6.640625 L 6.21875 -6.859375 L 6.21875 -1.96875 L 10.640625 -2.265625 L 11.421875 -4.84375 Z M 13.40625 -4.703125 "/></g></g></g><g fill="#23268b" fill-opacity="1"><g transform="translate(192.741752, 264.118058)"><g><path d="M 17.671875 -14.8125 C 17.179688 -14.507812 16.539062 -14.191406 15.75 -13.859375 L 15.65625 0 L 12.328125 0.3125 L 4.84375 -11.171875 L 5.203125 -8.25 L 5.203125 -1.515625 L 7.28125 -1.203125 L 7.265625 0 L 0.75 0 L 0.609375 -0.75 C 1.066406 -1.050781 1.738281 -1.378906 2.625 -1.734375 L 2.625 -14.09375 L 0.96875 -14.359375 L 1 -15.5625 L 6.25 -15.5625 L 6.21875 -15.546875 L 13.53125 -4.109375 L 13.171875 -7.125 L 13.171875 -14.03125 L 10.875 -14.359375 L 10.90625 -15.5625 L 17.53125 -15.5625 Z M 17.671875 -14.8125 "/></g></g></g><g fill="#23268b" fill-opacity="1"><g transform="translate(212.898352, 264.118058)"><g><path d="M 13.40625 -4.703125 C 13.4375 -3.160156 13.34375 -1.59375 13.125 0 L 0.75 0 L 0.609375 -0.75 C 1.066406 -1.050781 1.738281 -1.378906 2.625 -1.734375 L 2.625 -14.140625 L 0.875 -14.359375 L 0.90625 -15.5625 L 13.25 -15.5625 C 13.320312 -14.269531 13.195312 -12.773438 12.875 -11.078125 L 10.875 -11.078125 L 10.484375 -13.40625 L 6.21875 -13.71875 L 6.21875 -8.640625 L 11.3125 -9.03125 L 11.3125 -6.640625 L 6.21875 -6.859375 L 6.21875 -1.96875 L 10.640625 -2.265625 L 11.421875 -4.84375 Z M 13.40625 -4.703125 "/></g></g></g><g fill="#23268b" fill-opacity="1"><g transform="translate(229.34084, 264.118058)"><g><path d="M 16.15625 -1.203125 L 16.140625 0 L 11.40625 0 L 8.1875 -6.03125 L 6.21875 -6.015625 L 6.21875 -1.515625 L 8.34375 -1.203125 L 8.328125 0 L 0.75 0 L 0.609375 -0.75 C 1.066406 -1.050781 1.738281 -1.378906 2.625 -1.734375 L 2.625 -14.140625 L 0.875 -14.359375 L 0.90625 -15.5625 L 8.453125 -15.75 C 10.265625 -15.75 11.75 -15.289062 12.90625 -14.375 C 14.0625 -13.46875 14.640625 -12.328125 14.640625 -10.953125 C 14.640625 -10.023438 14.351562 -9.160156 13.78125 -8.359375 C 13.21875 -7.566406 12.445312 -6.960938 11.46875 -6.546875 L 14.640625 -1.390625 Z M 6.21875 -8 C 6.757812 -7.882812 7.273438 -7.828125 7.765625 -7.828125 C 8.878906 -7.828125 9.679688 -8.109375 10.171875 -8.671875 C 10.671875 -9.242188 10.921875 -9.976562 10.921875 -10.875 C 10.921875 -12.269531 10.453125 -13.28125 9.515625 -13.90625 L 6.21875 -13.5625 Z M 6.21875 -8 "/></g></g></g><g fill="#23268b" fill-opacity="1"><g transform="translate(247.557578, 264.118058)"><g><path d="M 14.125 -5.65625 L 14.125 -1.625 L 9.078125 0.46875 L 8.375 0.5 C 6.53125 0.5 4.992188 0.109375 3.765625 -0.671875 C 2.546875 -1.453125 1.65625 -2.445312 1.09375 -3.65625 C 0.539062 -4.875 0.265625 -6.144531 0.265625 -7.46875 C 0.265625 -8.96875 0.597656 -10.375 1.265625 -11.6875 C 1.929688 -13 2.914062 -14.050781 4.21875 -14.84375 C 5.519531 -15.632812 7.078125 -16.03125 8.890625 -16.03125 C 10.898438 -16.03125 12.582031 -15.550781 13.9375 -14.59375 L 13.953125 -14.125 C 13.953125 -13 13.78125 -11.816406 13.4375 -10.578125 L 11.28125 -10.578125 L 10.71875 -13.21875 C 9.519531 -13.726562 8.265625 -13.984375 6.953125 -13.984375 L 6.390625 -13.953125 C 5.566406 -13.367188 4.945312 -12.539062 4.53125 -11.46875 C 4.125 -10.394531 3.921875 -9.222656 3.921875 -7.953125 C 3.921875 -6.179688 4.363281 -4.722656 5.25 -3.578125 C 6.144531 -2.441406 7.3125 -1.863281 8.75 -1.84375 C 9.269531 -1.832031 9.957031 -1.894531 10.8125 -2.03125 L 10.8125 -5.296875 C 9.976562 -5.597656 9.191406 -5.953125 8.453125 -6.359375 L 8.59375 -7.171875 L 15.890625 -7.171875 L 15.921875 -6.03125 Z M 14.125 -5.65625 "/></g></g></g><g fill="#23268b" fill-opacity="1"><g transform="translate(265.845301, 264.118058)"><g><path d="M 9.390625 -1.484375 L 11.359375 -1.203125 L 11.328125 0 L 4.109375 0 L 3.96875 -0.75 C 4.457031 -1.050781 5.097656 -1.367188 5.890625 -1.703125 L 5.890625 -5.84375 L 1.4375 -14.140625 L -0.046875 -14.359375 L -0.03125 -15.5625 L 6.296875 -15.5625 L 6.4375 -14.8125 L 5.109375 -14.125 L 7.328125 -9.9375 L 7.96875 -7.921875 L 8.109375 -7.921875 L 11.21875 -14.09375 L 9.46875 -14.359375 L 9.484375 -15.5625 L 15.265625 -15.5625 L 15.40625 -14.8125 C 14.988281 -14.5625 14.363281 -14.253906 13.53125 -13.890625 L 9.390625 -6.21875 Z M 9.390625 -1.484375 "/></g></g></g><g fill="#23268b" fill-opacity="1"><g transform="translate(282.997478, 264.118058)"><g/></g></g><g fill="#23268b" fill-opacity="1"><g transform="translate(291.11271, 264.118058)"><g><path d="M 13.9375 -4.59375 C 13.9375 -2.695312 13.832031 -1.164062 13.625 0 L 0.75 0 L 0.609375 -0.75 C 1.066406 -1.050781 1.738281 -1.378906 2.625 -1.734375 L 2.625 -14.09375 L 0.796875 -14.359375 L 0.828125 -15.5625 L 8.0625 -15.5625 L 8.203125 -14.8125 C 7.617188 -14.457031 6.957031 -14.132812 6.21875 -13.84375 L 6.21875 -1.984375 L 10.953125 -2.359375 L 11.875 -5.625 L 13.9375 -5.4375 Z M 13.9375 -4.59375 "/></g></g></g><g fill="#23268b" fill-opacity="1"><g transform="translate(307.058384, 264.118058)"><g><path d="M 15.046875 -15.703125 L 15.0625 -15.015625 C 15.0625 -13.390625 14.929688 -11.957031 14.671875 -10.71875 L 12.78125 -10.71875 L 12.421875 -13.703125 L 9.4375 -13.9375 L 9.4375 -1.5625 L 11.859375 -1.203125 L 11.828125 0 L 3.578125 0 L 3.4375 -0.75 C 3.78125 -0.976562 4.582031 -1.335938 5.84375 -1.828125 L 5.84375 -13.9375 L 2.84375 -13.703125 L 2.484375 -10.71875 L 0.59375 -10.71875 C 0.320312 -11.957031 0.1875 -13.390625 0.1875 -15.015625 L 0.21875 -15.703125 L 7.671875 -15.609375 Z M 15.046875 -15.703125 "/></g></g></g><g fill="#23268b" fill-opacity="1"><g transform="translate(324.163247, 264.118058)"><g><path d="M 8.5625 -15.75 C 10.1875 -15.75 11.585938 -15.367188 12.765625 -14.609375 C 13.941406 -13.859375 14.835938 -12.882812 15.453125 -11.6875 C 16.066406 -10.488281 16.375 -9.226562 16.375 -7.90625 C 16.375 -5.601562 15.660156 -3.722656 14.234375 -2.265625 C 12.804688 -0.816406 10.910156 -0.0625 8.546875 0 L 0.75 0 L 0.609375 -0.75 C 1.066406 -1.050781 1.738281 -1.378906 2.625 -1.734375 L 2.625 -14.140625 L 0.953125 -14.359375 L 0.96875 -15.5625 C 3.238281 -15.6875 5.769531 -15.75 8.5625 -15.75 Z M 8.015625 -1.96875 C 9.367188 -1.96875 10.46875 -2.507812 11.3125 -3.59375 C 12.15625 -4.6875 12.578125 -6.078125 12.578125 -7.765625 C 12.578125 -9.066406 12.304688 -10.285156 11.765625 -11.421875 C 11.222656 -12.554688 10.519531 -13.382812 9.65625 -13.90625 L 6.21875 -13.5625 L 6.21875 -2.25 C 6.863281 -2.0625 7.460938 -1.96875 8.015625 -1.96875 Z M 8.015625 -1.96875 "/></g></g></g><g fill="#23268b" fill-opacity="1"><g transform="translate(342.711214, 264.118058)"><g><path d="M 4.421875 0.921875 C 4.054688 0.773438 3.644531 0.523438 3.1875 0.171875 C 2.726562 -0.179688 2.382812 -0.515625 2.15625 -0.828125 C 2.707031 -1.929688 3.3125 -2.671875 3.96875 -3.046875 C 4.78125 -2.753906 5.507812 -2.171875 6.15625 -1.296875 C 5.789062 -0.347656 5.210938 0.390625 4.421875 0.921875 Z M 4.421875 0.921875 "/></g></g></g><path fill="#ffbe00" d="M 187.636719 146.566406 C 201.199219 146.566406 214 148.644531 224.464844 152.328125 C 222.738281 132.964844 198.765625 116.949219 187.636719 93.050781 C 187.636719 93.050781 152.421875 121.960938 150.769531 152.339844 C 161.242188 148.648438 174.058594 146.566406 187.636719 146.566406 " fill-opacity="1" fill-rule="nonzero"/><g clip-path="url(#3d596796b7)"><path fill="#23268b" d="M 207.265625 152.621094 C 207.65625 154.1875 207.867188 155.824219 207.867188 157.511719 C 207.867188 168.671875 198.808594 177.722656 187.636719 177.722656 C 176.460938 177.722656 167.402344 168.671875 167.402344 157.511719 C 167.402344 155.824219 167.613281 154.1875 168.003906 152.621094 C 159.664062 154 152.203125 156.230469 146.109375 159.082031 C 146.136719 160.75 146.261719 162.390625 146.480469 164.007812 C 149.765625 163.777344 152.085938 163.890625 152.085938 163.890625 C 152.960938 168.339844 154.65625 172.5 157.007812 176.207031 L 153.902344 182.515625 C 155.988281 185.246094 158.398438 187.71875 161.078125 189.871094 L 167.46875 186.941406 C 171.117188 189.386719 175.238281 191.1875 179.667969 192.179688 L 181.9375 198.832031 C 183.800781 199.082031 185.699219 199.210938 187.632812 199.210938 C 189.183594 199.210938 190.710938 199.125 192.21875 198.964844 L 194.660156 192.375 C 199.117188 191.5 203.28125 189.808594 206.992188 187.460938 L 213.304688 190.5625 C 216.042969 188.476562 218.515625 186.070312 220.671875 183.394531 L 217.738281 177.007812 C 220.183594 173.363281 221.988281 169.25 222.980469 164.824219 C 222.980469 164.824219 225.214844 164.246094 228.757812 164.234375 C 228.996094 162.546875 229.128906 160.828125 229.15625 159.082031 C 223.066406 156.226562 215.605469 154 207.265625 152.621094 " fill-opacity="1" fill-rule="nonzero"/></g><g clip-path="url(#5a6cd3d692)"><g clip-path="url(#590f8207ef)"><g clip-path="url(#635b2aded2)"><path fill="#23268b" d="M 159.640625 198.820312 L 158.207031 192.171875 C 148.925781 186.335938 141.304688 177.660156 136.8125 166.75 C 125.328125 138.855469 138.621094 106.9375 166.507812 95.457031 C 169.054688 94.410156 171.628906 93.570312 174.222656 92.929688 L 179.734375 86.027344 C 186.597656 77.429688 194.632812 70.523438 203.703125 65.378906 C 201.519531 64.933594 199.316406 64.566406 197.097656 64.296875 L 189.367188 50.90625 C 183.199219 50.765625 176.972656 51.230469 170.765625 52.332031 L 165.164062 66.75 C 162.085938 67.617188 159.019531 68.660156 155.988281 69.910156 C 152.960938 71.15625 150.046875 72.570312 147.25 74.125 L 133.121094 67.828125 C 127.9375 71.417969 123.1875 75.472656 118.910156 79.914062 L 122.851562 94.867188 C 118.816406 99.964844 115.417969 105.507812 112.703125 111.363281 L 97.585938 114.578125 C 95.53125 120.457031 94.046875 126.535156 93.171875 132.734375 L 105.132812 142.523438 C 104.863281 148.914062 105.339844 155.394531 106.617188 161.839844 L 96.285156 173.332031 C 97.179688 176.289062 98.21875 179.226562 99.417969 182.144531 C 100.621094 185.058594 101.949219 187.878906 103.398438 190.609375 L 118.824219 191.492188 C 122.457031 196.96875 126.679688 201.90625 131.375 206.253906 L 129.769531 221.628906 C 134.757812 225.414062 140.09375 228.6875 145.6875 231.410156 L 158.6875 223.050781 C 161.617188 224.140625 164.613281 225.058594 167.652344 225.808594 C 164.300781 216.964844 161.605469 207.914062 159.640625 198.820312 " fill-opacity="1" fill-rule="nonzero"/></g></g></g><g clip-path="url(#540773ec8e)"><g clip-path="url(#d6d8a80612)"><g clip-path="url(#2d905610d4)"><path fill="#ffbe00" d="M 278.320312 118.589844 C 277.425781 115.632812 276.382812 112.691406 275.183594 109.777344 C 273.984375 106.863281 272.652344 104.039062 271.207031 101.3125 L 255.777344 100.425781 C 252.148438 94.949219 247.921875 90.011719 243.226562 85.664062 L 244.832031 70.292969 C 239.847656 66.503906 234.511719 63.234375 228.914062 60.507812 L 215.917969 68.867188 C 204.1875 73.699219 194.285156 81.4375 186.382812 91.335938 C 208.179688 90.980469 228.988281 103.792969 237.792969 125.171875 C 249.277344 153.066406 235.980469 184.980469 208.09375 196.464844 C 194.746094 201.960938 180.472656 201.773438 167.960938 197.027344 C 170.152344 207.179688 173.316406 217.441406 177.507812 227.621094 L 185.238281 241.015625 C 191.402344 241.15625 197.632812 240.6875 203.839844 239.585938 L 209.4375 225.167969 C 212.519531 224.304688 215.582031 223.257812 218.613281 222.011719 C 221.644531 220.761719 224.554688 219.347656 227.351562 217.792969 L 241.480469 224.089844 C 246.664062 220.5 251.414062 216.445312 255.695312 212.003906 L 251.753906 197.050781 C 255.789062 191.953125 259.183594 186.410156 261.902344 180.554688 L 277.019531 177.339844 C 279.074219 171.464844 280.558594 165.382812 281.433594 159.183594 L 269.46875 149.398438 C 269.742188 143.003906 269.265625 136.523438 267.988281 130.078125 L 278.320312 118.589844 " fill-opacity="1" fill-rule="nonzero"/></g></g></g></svg>