<svg xmlns="http://www.w3.org/2000/svg" xmlns:xlink="http://www.w3.org/1999/xlink" width="500" zoomAndPan="magnify" viewBox="0 0 375 374.999991" height="500" preserveAspectRatio="xMidYMid meet" version="1.0"><defs><g/><clipPath id="43af11756e"><path d="M 105.359375 68 L 269.640625 68 L 269.640625 229 L 105.359375 229 Z M 105.359375 68 " clip-rule="nonzero"/></clipPath></defs><g clip-path="url(#43af11756e)"><path fill="#d49b35" d="M 149.441406 113.4375 C 149.933594 113.4375 150.332031 113.835938 150.332031 114.328125 C 150.332031 114.820312 149.933594 115.222656 149.441406 115.222656 C 148.949219 115.222656 148.546875 114.820312 148.546875 114.328125 C 148.546875 113.835938 148.949219 113.4375 149.441406 113.4375 Z M 202.757812 112.09375 C 202.445312 112.09375 202.222656 112.320312 202.222656 112.632812 C 202.222656 112.945312 202.445312 113.167969 202.757812 113.167969 C 203.070312 113.167969 203.292969 112.945312 203.292969 112.632812 C 203.292969 112.320312 203.070312 112.09375 202.757812 112.09375 Z M 201.152344 112.183594 C 200.75 112.183594 200.484375 112.496094 200.484375 112.898438 C 200.484375 113.300781 200.796875 113.570312 201.199219 113.570312 C 201.597656 113.570312 201.867188 113.257812 201.867188 112.855469 C 201.820312 112.453125 201.511719 112.183594 201.152344 112.183594 Z M 199.191406 112.40625 C 198.789062 112.40625 198.519531 112.722656 198.519531 113.121094 C 198.519531 113.523438 198.832031 113.792969 199.234375 113.792969 C 199.636719 113.792969 199.902344 113.480469 199.902344 113.078125 C 199.902344 112.722656 199.589844 112.40625 199.191406 112.40625 Z M 196.957031 112.585938 C 196.511719 112.585938 196.199219 112.945312 196.199219 113.347656 C 196.199219 113.792969 196.558594 114.105469 196.957031 114.105469 C 197.40625 114.105469 197.71875 113.75 197.71875 113.347656 C 197.71875 112.945312 197.359375 112.585938 196.957031 112.585938 Z M 194.550781 112.765625 C 194.101562 112.765625 193.792969 113.121094 193.792969 113.523438 C 193.792969 113.972656 194.148438 114.285156 194.550781 114.285156 C 194.996094 114.285156 195.308594 113.925781 195.308594 113.523438 C 195.308594 113.121094 194.996094 112.765625 194.550781 112.765625 Z M 191.828125 112.945312 C 191.335938 112.945312 190.980469 113.347656 190.980469 113.792969 C 190.980469 114.285156 191.382812 114.640625 191.828125 114.640625 C 192.320312 114.640625 192.675781 114.238281 192.675781 113.792969 C 192.675781 113.300781 192.273438 112.898438 191.828125 112.945312 Z M 188.929688 112.945312 C 188.480469 112.945312 188.078125 113.347656 188.078125 113.792969 C 188.078125 114.238281 188.480469 114.640625 188.929688 114.640625 C 189.375 114.640625 189.777344 114.238281 189.777344 113.792969 C 189.777344 113.347656 189.417969 112.945312 188.929688 112.945312 Z M 172.285156 112.183594 C 172.597656 112.183594 172.820312 112.40625 172.820312 112.722656 C 172.820312 113.035156 172.597656 113.257812 172.285156 113.257812 C 171.972656 113.257812 171.75 113.035156 171.75 112.722656 C 171.75 112.453125 172.019531 112.183594 172.285156 112.183594 Z M 173.9375 112.273438 C 174.335938 112.273438 174.648438 112.585938 174.648438 112.988281 C 174.648438 113.390625 174.335938 113.703125 173.9375 113.703125 C 173.535156 113.703125 173.222656 113.390625 173.222656 112.988281 C 173.222656 112.585938 173.535156 112.273438 173.9375 112.273438 Z M 175.855469 112.496094 C 176.257812 112.496094 176.570312 112.808594 176.570312 113.210938 C 176.570312 113.613281 176.257812 113.925781 175.855469 113.925781 C 175.453125 113.925781 175.140625 113.613281 175.140625 113.210938 C 175.183594 112.808594 175.496094 112.496094 175.855469 112.496094 Z M 178.128906 112.632812 C 178.578125 112.632812 178.890625 112.988281 178.890625 113.390625 C 178.890625 113.835938 178.53125 114.152344 178.128906 114.152344 C 177.730469 114.152344 177.371094 113.792969 177.371094 113.390625 C 177.328125 112.988281 177.683594 112.632812 178.128906 112.632812 Z M 180.539062 112.808594 C 180.984375 112.808594 181.296875 113.167969 181.296875 113.570312 C 181.296875 114.015625 180.941406 114.328125 180.539062 114.328125 C 180.09375 114.328125 179.78125 113.972656 179.78125 113.570312 C 179.738281 113.167969 180.09375 112.808594 180.539062 112.808594 Z M 183.261719 112.945312 C 183.753906 112.945312 184.109375 113.347656 184.109375 113.792969 C 184.109375 114.285156 183.707031 114.640625 183.261719 114.640625 C 182.816406 114.640625 182.414062 114.238281 182.414062 113.792969 C 182.414062 113.300781 182.769531 112.945312 183.261719 112.945312 Z M 186.117188 112.945312 C 186.5625 112.945312 186.964844 113.300781 186.964844 113.792969 C 186.964844 114.238281 186.609375 114.640625 186.117188 114.640625 C 185.671875 114.640625 185.269531 114.285156 185.269531 113.792969 C 185.3125 113.300781 185.671875 112.945312 186.117188 112.945312 Z M 186.160156 179.832031 C 184.242188 178.269531 182.28125 177.417969 180.183594 177.820312 C 178.621094 178.179688 177.550781 179.519531 176.746094 181.621094 C 174.695312 185.953125 172.640625 188.945312 170.589844 190.019531 C 177.015625 189.4375 181.519531 188.632812 183.171875 187.429688 C 182.636719 189.976562 182.636719 192.523438 183.574219 195.023438 C 184.289062 197.703125 185.804688 198.644531 185.761719 203.109375 C 186.382812 199.269531 187.589844 198.867188 188.972656 196.410156 C 191.292969 192.746094 191.472656 189.929688 190.625 186.355469 C 192.09375 188.320312 195.128906 189.347656 198.34375 189.527344 C 200.304688 189.617188 202.535156 190.0625 204.632812 190.332031 C 202.625 188.859375 201.152344 187.429688 199.769531 185.058594 C 198.789062 183.09375 197.984375 180.726562 196.46875 179.160156 C 195.710938 178.046875 194.058594 177.375 192.007812 178.269531 C 190.445312 178.714844 189.550781 179.429688 188.703125 180.191406 C 191.960938 180.191406 193.703125 181.753906 194.640625 184.167969 C 192.765625 181.84375 190.625 180.589844 188.078125 181.171875 C 189.328125 185.640625 188.570312 188.992188 186.652344 191.71875 C 187.992188 187.832031 188.480469 184.167969 186.785156 180.992188 C 183.707031 180.636719 181.878906 182.199219 180.273438 184.03125 C 181.34375 181.53125 182.816406 180.011719 186.160156 179.832031 Z M 169.25 104.007812 C 170.546875 108.921875 172.507812 108.117188 174.695312 102.800781 C 175.410156 102.488281 176.121094 102.042969 176.570312 101.148438 C 176.925781 100.523438 177.015625 99.941406 176.925781 99.316406 C 176.882812 99.003906 176.792969 98.871094 176.390625 98.824219 C 176.523438 97.84375 176.300781 97.082031 175.722656 96.589844 C 174.785156 97.171875 174.25 98.066406 174.160156 99.316406 C 173.800781 99.273438 173.578125 99.539062 173.445312 100.03125 C 173.3125 100.703125 173.402344 101.328125 173.667969 101.996094 C 173.9375 102.398438 174.25 102.710938 174.738281 102.800781 C 177.328125 109.996094 180.273438 108.117188 182.726562 102.398438 C 181.34375 101.863281 180.585938 100.925781 180.40625 99.628906 C 180.226562 98.644531 180.808594 98.019531 181.476562 98.242188 C 181.476562 96.367188 182.054688 95.652344 183.214844 95.695312 C 184.554688 95.785156 184.824219 96.679688 184.511719 98.066406 C 185.402344 97.886719 185.804688 98.378906 185.582031 99.539062 C 185.136719 100.746094 184.199219 101.730469 182.769531 102.355469 C 184.6875 108.164062 189.464844 109.773438 192.320312 102.398438 C 193.703125 101.863281 194.503906 100.925781 194.683594 99.628906 C 194.863281 98.644531 194.28125 98.019531 193.613281 98.242188 C 193.613281 96.367188 193.03125 95.652344 191.871094 95.695312 C 190.578125 95.785156 190.265625 96.679688 190.578125 98.066406 C 189.6875 97.886719 189.285156 98.378906 189.507812 99.539062 C 189.953125 100.789062 190.890625 101.730469 192.363281 102.398438 C 195.308594 108.609375 197.761719 109.503906 200.394531 103.023438 C 202.492188 108.117188 204.765625 108.96875 205.792969 104.097656 C 205.125 102.800781 204.632812 101.683594 204.765625 100.613281 C 204.679688 100.03125 204.722656 99.628906 204.765625 99.09375 C 205.214844 99.539062 205.347656 100.121094 205.480469 100.613281 C 206.0625 102.085938 206.195312 102.980469 205.792969 104.097656 C 205.925781 105.347656 205.703125 106.957031 205.214844 108.742188 C 205.125 108.699219 205.035156 108.609375 204.902344 108.609375 C 204.320312 108.742188 204.140625 109.234375 204.097656 109.816406 C 203.742188 109.773438 203.5625 109.949219 203.605469 110.308594 C 203.695312 110.84375 203.875 111.203125 204.320312 111.46875 L 204.320312 111.515625 C 193.121094 113.167969 181.832031 113.347656 170.410156 111.605469 L 170.410156 111.558594 C 170.992188 111.289062 171.394531 110.933594 171.4375 110.261719 C 171.4375 109.859375 171.480469 109.59375 170.945312 109.683594 C 170.859375 108.96875 170.589844 108.609375 170.054688 108.566406 C 169.921875 108.65625 169.785156 108.742188 169.699219 108.832031 C 169.429688 107.3125 169.296875 105.75 169.25 104.007812 L 169.207031 104.097656 C 168.851562 103.070312 168.984375 102.21875 169.5625 100.835938 C 169.742188 100.34375 169.875 99.808594 170.277344 99.40625 C 170.320312 99.941406 170.320312 100.300781 170.234375 100.835938 C 170.320312 101.820312 169.875 102.847656 169.25 104.007812 Z M 169.742188 101.015625 L 169.921875 101.015625 L 169.921875 100.613281 C 169.921875 100.566406 169.785156 100.925781 169.742188 101.015625 Z M 174.695312 98.957031 L 175.765625 98.871094 L 175.496094 97.527344 Z M 183.929688 98.109375 L 183.082031 96.457031 L 182.058594 98.242188 Z M 191.160156 98.109375 L 193.03125 98.242188 L 192.007812 96.457031 Z M 200.972656 99.273438 C 200.886719 98.019531 200.351562 97.125 199.414062 96.546875 C 198.832031 97.039062 198.566406 97.796875 198.742188 98.78125 C 198.296875 98.824219 198.253906 98.957031 198.207031 99.273438 C 198.117188 99.851562 198.207031 100.476562 198.566406 101.105469 C 199.011719 101.996094 199.726562 102.445312 200.4375 102.757812 C 200.929688 102.667969 201.242188 102.355469 201.511719 101.953125 C 201.777344 101.328125 201.867188 100.65625 201.734375 99.988281 C 201.554688 99.496094 201.285156 99.226562 200.972656 99.273438 Z M 200.394531 98.914062 L 199.589844 97.484375 L 199.324219 98.824219 Z M 205.347656 100.835938 C 205.300781 100.789062 205.125 100.386719 205.125 100.386719 L 205.125 100.835938 Z M 203.605469 113.347656 C 203.160156 114.417969 202.671875 115.535156 202.132812 116.699219 C 192.855469 118.976562 183.082031 119.15625 172.730469 116.699219 C 172.0625 115.535156 171.527344 114.417969 171.082031 113.390625 C 182.101562 115.402344 192.898438 115.132812 203.605469 113.347656 Z M 177.550781 109.816406 C 177.191406 109.816406 177.015625 109.996094 177.105469 110.351562 C 177.238281 110.976562 177.503906 111.335938 178.175781 111.605469 C 178.800781 111.378906 179.246094 111.113281 179.378906 110.488281 C 179.425781 110.085938 179.511719 109.816406 178.976562 109.816406 C 178.976562 109.101562 178.753906 108.699219 178.265625 108.566406 C 177.683594 108.742188 177.550781 109.234375 177.550781 109.816406 Z M 178.085938 109.414062 C 177.996094 109.414062 177.953125 109.460938 177.953125 109.546875 C 177.996094 109.726562 178.085938 109.816406 178.21875 109.90625 C 178.398438 109.859375 178.488281 109.773438 178.53125 109.59375 C 178.53125 109.503906 178.578125 109.414062 178.441406 109.414062 C 178.441406 109.234375 178.398438 109.101562 178.265625 109.101562 C 178.128906 109.144531 178.085938 109.28125 178.085938 109.414062 Z M 186.785156 109.90625 C 186.429688 109.90625 186.207031 110.128906 186.296875 110.488281 C 186.472656 111.15625 186.742188 111.558594 187.5 111.871094 C 188.167969 111.648438 188.703125 111.335938 188.839844 110.621094 C 188.882812 110.175781 188.972656 109.859375 188.390625 109.90625 C 188.4375 109.144531 188.167969 108.65625 187.589844 108.519531 C 186.921875 108.699219 186.785156 109.234375 186.785156 109.90625 Z M 187.320312 109.460938 C 187.230469 109.460938 187.144531 109.503906 187.1875 109.636719 C 187.230469 109.816406 187.320312 109.949219 187.5 109.996094 C 187.679688 109.949219 187.8125 109.859375 187.855469 109.636719 C 187.855469 109.503906 187.902344 109.460938 187.722656 109.460938 C 187.722656 109.234375 187.679688 109.101562 187.5 109.101562 C 187.367188 109.144531 187.320312 109.324219 187.320312 109.460938 Z M 196.023438 109.683594 C 195.664062 109.683594 195.488281 109.859375 195.574219 110.21875 C 195.710938 110.84375 195.976562 111.203125 196.648438 111.46875 C 197.269531 111.246094 197.71875 110.976562 197.851562 110.351562 C 197.894531 109.949219 197.984375 109.683594 197.449219 109.683594 C 197.449219 108.96875 197.226562 108.566406 196.734375 108.429688 C 196.15625 108.65625 196.023438 109.144531 196.023438 109.683594 Z M 196.511719 109.324219 C 196.421875 109.324219 196.378906 109.371094 196.378906 109.460938 C 196.421875 109.636719 196.511719 109.726562 196.648438 109.816406 C 196.824219 109.773438 196.914062 109.683594 196.957031 109.503906 C 196.957031 109.414062 197.003906 109.324219 196.871094 109.324219 C 196.871094 109.144531 196.824219 109.011719 196.691406 109.011719 C 196.558594 109.058594 196.511719 109.191406 196.511719 109.324219 Z M 205.035156 109.414062 C 205.035156 109.324219 204.945312 109.234375 204.855469 109.191406 C 204.679688 109.234375 204.632812 109.371094 204.632812 109.503906 C 204.542969 109.503906 204.5 109.546875 204.5 109.636719 C 204.542969 109.816406 204.589844 109.90625 204.765625 109.996094 L 204.855469 109.996094 C 204.902344 109.773438 204.988281 109.59375 205.035156 109.414062 Z M 170.011719 109.460938 C 169.921875 109.460938 169.875 109.546875 169.921875 109.59375 C 169.964844 109.773438 170.054688 109.816406 170.234375 109.90625 C 170.367188 109.816406 170.5 109.726562 170.5 109.546875 C 170.5 109.414062 170.5 109.371094 170.367188 109.371094 C 170.367188 109.191406 170.277344 109.058594 170.144531 109.058594 C 170.011719 109.191406 169.964844 109.324219 170.011719 109.460938 Z M 149.441406 183.988281 C 149.933594 183.988281 150.332031 183.585938 150.332031 183.09375 C 150.332031 182.601562 149.933594 182.199219 149.441406 182.199219 C 148.949219 182.199219 148.546875 182.601562 148.546875 183.09375 C 148.59375 183.585938 148.949219 183.988281 149.441406 183.988281 Z M 225.558594 183.988281 C 225.066406 183.988281 224.667969 183.585938 224.667969 183.09375 C 224.667969 182.601562 225.066406 182.199219 225.558594 182.199219 C 226.050781 182.199219 226.453125 182.601562 226.453125 183.09375 C 226.453125 183.585938 226.050781 183.988281 225.558594 183.988281 Z M 269.640625 227.863281 C 258.574219 228.847656 250.945312 224.199219 243.496094 214.550781 L 229.53125 195.558594 C 225.558594 190.601562 220.828125 185.773438 214.804688 182.46875 C 219.847656 186 226.003906 190.019531 227.878906 199.492188 C 228.949219 207.9375 225.113281 215.890625 219.625 218.214844 C 215.742188 220.179688 209.230469 219.464844 204.945312 216.292969 C 212.484375 220.492188 220.695312 217.363281 223.371094 213.121094 C 227.699219 206.417969 227.164062 197.617188 223.953125 193.148438 C 223.640625 192.65625 223.285156 192.210938 222.925781 191.71875 C 228.28125 203.15625 222.703125 216.070312 208.828125 215.441406 C 208.871094 214.683594 209.765625 213.386719 210.925781 212.808594 C 213.066406 211.511719 215.296875 210.394531 217.347656 208.875 C 220.429688 206.730469 222.703125 204.050781 223.417969 200.296875 C 223.773438 197.347656 223.148438 194.085938 221.945312 190.554688 C 220.917969 189.304688 219.804688 188.144531 218.597656 187.070312 C 219.578125 188.457031 220.160156 191.136719 219.980469 192.65625 C 219.089844 196.585938 217.394531 197.257812 215.964844 197.703125 C 214.136719 198.242188 212.664062 197.839844 211.503906 196.632812 C 210.253906 195.246094 210.34375 193.28125 211.460938 192.296875 C 213.019531 191.179688 214.539062 191.046875 215.875 192.253906 C 213.601562 191.808594 211.859375 192.074219 211.371094 194.128906 C 211.324219 195.558594 212.171875 196.5 213.511719 197.078125 C 215.875 197.347656 217.394531 196.453125 218.421875 194.980469 C 219.714844 193.101562 219.355469 190.464844 218.507812 188.8125 C 217.796875 187.339844 216.722656 186.175781 215.652344 185.285156 C 205.972656 179.519531 199.277344 176.972656 187.542969 176.035156 C 175.808594 176.972656 169.117188 179.519531 159.433594 185.285156 C 158.320312 186.175781 157.25 187.339844 156.578125 188.8125 C 155.730469 190.464844 155.421875 193.101562 156.667969 194.980469 C 157.695312 196.453125 159.210938 197.347656 161.578125 197.078125 C 162.914062 196.5 163.761719 195.558594 163.71875 194.128906 C 163.226562 192.121094 161.488281 191.808594 159.210938 192.253906 C 160.59375 191.046875 162.066406 191.179688 163.628906 192.296875 C 164.699219 193.238281 164.835938 195.203125 163.585938 196.632812 C 162.425781 197.839844 160.953125 198.242188 159.125 197.703125 C 157.695312 197.300781 156 196.585938 155.109375 192.65625 C 154.882812 191.136719 155.507812 188.457031 156.492188 187.070312 C 155.285156 188.1875 154.171875 189.347656 153.144531 190.554688 C 151.941406 194.085938 151.316406 197.347656 151.671875 200.296875 C 152.429688 204.050781 154.707031 206.730469 157.738281 208.875 C 159.835938 210.394531 162.023438 211.511719 164.164062 212.808594 C 165.324219 213.433594 166.21875 214.683594 166.261719 215.441406 C 152.386719 216.070312 146.808594 203.15625 152.164062 191.71875 C 151.804688 192.164062 151.449219 192.65625 151.136719 193.148438 C 147.925781 197.617188 147.390625 206.417969 151.714844 213.121094 C 154.347656 217.320312 162.601562 220.449219 170.144531 216.292969 C 165.859375 219.464844 159.347656 220.179688 155.464844 218.214844 C 149.933594 215.890625 146.140625 207.9375 147.210938 199.492188 C 149.039062 190.0625 155.242188 186 160.285156 182.46875 C 154.261719 185.773438 149.53125 190.601562 145.558594 195.558594 L 131.550781 214.59375 C 124.144531 224.246094 116.46875 228.890625 105.402344 227.910156 C 110.667969 227.640625 115.53125 226.121094 119.859375 222.90625 C 124.855469 219.332031 129.230469 214.816406 133.199219 209.589844 C 137.261719 204.765625 140.117188 199.449219 144.085938 194.933594 C 142.570312 195.695312 139.804688 195.917969 138.285156 195.472656 C 134.496094 193.996094 134.046875 192.210938 133.824219 190.691406 C 133.558594 188.8125 134.183594 187.382812 135.566406 186.402344 C 137.171875 185.328125 139.089844 185.730469 139.894531 186.980469 C 140.785156 188.722656 140.695312 190.242188 139.3125 191.40625 C 140.117188 189.214844 140.070312 187.382812 138.109375 186.625 C 136.679688 186.402344 135.65625 187.070312 134.851562 188.367188 C 134.226562 190.734375 134.894531 192.34375 136.234375 193.59375 C 137.886719 195.15625 140.605469 195.203125 142.390625 194.621094 C 143.953125 194.128906 145.292969 193.238281 146.316406 192.253906 C 154.171875 182.289062 165.414062 177.644531 171.929688 176.4375 C 163.496094 177.597656 155.285156 180.503906 147.390625 186.9375 C 149.976562 183.765625 153.8125 181.128906 158.542969 179.160156 C 158.453125 179.160156 158.363281 179.207031 158.320312 179.207031 C 157.652344 179.207031 157.117188 178.671875 157.117188 178 C 157.117188 177.332031 157.652344 176.792969 158.320312 176.792969 C 158.988281 176.792969 159.523438 177.332031 159.523438 178 C 159.523438 178.445312 159.300781 178.804688 158.988281 179.027344 C 159.613281 178.761719 160.238281 178.535156 160.90625 178.3125 L 160.730469 178.3125 C 160.015625 178.3125 159.433594 177.730469 159.433594 177.015625 C 159.433594 176.300781 160.015625 175.722656 160.730469 175.722656 C 161.441406 175.722656 162.023438 176.300781 162.023438 177.015625 C 162.023438 177.507812 161.753906 177.910156 161.355469 178.132812 C 168.625 175.675781 177.683594 174.738281 187.679688 175.765625 C 197.671875 174.738281 206.730469 175.675781 214.003906 178.132812 C 213.601562 177.910156 213.332031 177.507812 213.332031 177.015625 C 213.332031 176.300781 213.914062 175.722656 214.628906 175.722656 C 215.339844 175.722656 215.921875 176.300781 215.921875 177.015625 C 215.921875 177.730469 215.339844 178.3125 214.628906 178.3125 L 214.449219 178.3125 C 215.117188 178.535156 215.742188 178.761719 216.367188 179.027344 C 216.054688 178.804688 215.832031 178.445312 215.832031 178 C 215.832031 177.332031 216.367188 176.792969 217.035156 176.792969 C 217.707031 176.792969 218.242188 177.332031 218.242188 178 C 218.242188 178.671875 217.707031 179.207031 217.035156 179.207031 C 216.949219 179.207031 216.859375 179.207031 216.8125 179.160156 C 221.542969 181.128906 225.335938 183.765625 227.96875 186.9375 C 220.070312 180.503906 211.816406 177.597656 203.429688 176.4375 C 209.898438 177.644531 221.1875 182.289062 229.039062 192.253906 C 230.066406 193.238281 231.402344 194.128906 232.964844 194.621094 C 234.75 195.246094 237.425781 195.15625 239.121094 193.59375 C 240.460938 192.34375 241.128906 190.734375 240.503906 188.367188 C 239.703125 187.117188 238.675781 186.402344 237.25 186.625 C 235.285156 187.429688 235.285156 189.214844 236.042969 191.40625 C 234.617188 190.199219 234.570312 188.722656 235.464844 186.980469 C 236.265625 185.773438 238.1875 185.371094 239.792969 186.402344 C 241.175781 187.382812 241.753906 188.8125 241.53125 190.691406 C 241.308594 192.164062 240.90625 193.996094 237.070312 195.472656 C 235.554688 195.917969 232.832031 195.695312 231.269531 194.933594 C 235.242188 199.449219 238.050781 204.765625 242.15625 209.589844 C 246.128906 214.773438 250.5 219.332031 255.496094 222.90625 C 259.511719 226.078125 264.375 227.597656 269.640625 227.863281 Z M 228.457031 200.476562 C 228.90625 205.300781 228.414062 209.679688 226.316406 213.34375 C 224.265625 216.425781 221.8125 218.882812 218.421875 220.984375 C 216.992188 221.742188 218.464844 222.59375 219.578125 222.191406 C 223.460938 220.222656 225.425781 217.140625 227.074219 213.835938 C 229.441406 209.410156 229.261719 203.289062 228.457031 200.476562 Z M 232.472656 204.183594 C 235.152344 213.253906 239.300781 221.117188 244.878906 227.910156 C 245.949219 229.519531 249.117188 228.667969 246.886719 225.945312 C 238.765625 218.570312 234.75 211.109375 232.472656 204.183594 Z M 258.710938 183.496094 C 257.816406 188.097656 256.65625 192.65625 252.820312 195.472656 C 247.6875 200.832031 237.25 198.910156 235.195312 196.945312 C 237.875 200.476562 249.296875 201.726562 254.472656 197.214844 C 259.15625 194.039062 259.914062 189.304688 258.710938 183.496094 Z M 219.667969 189.082031 C 220.605469 191.40625 220.652344 193.726562 218.957031 196.007812 C 217.347656 197.703125 216.546875 199.359375 217.4375 200.789062 C 218.109375 201.457031 219.179688 201.191406 219.667969 200.027344 C 219.804688 199.625 219.269531 199.3125 219.042969 199.671875 C 218.242188 201.234375 217.4375 199.894531 218.109375 199.132812 C 223.550781 194.488281 222.347656 191.582031 219.667969 189.082031 Z M 233.324219 195.785156 C 236.222656 198.0625 239.257812 198.777344 242.960938 192.65625 C 243.585938 191.851562 245.058594 192.433594 243.628906 193.460938 C 243.316406 193.773438 243.761719 194.21875 244.121094 194.039062 C 245.191406 193.371094 245.28125 192.253906 244.519531 191.71875 C 242.960938 191.046875 241.488281 192.074219 240.058594 193.953125 C 238.050781 196.007812 235.777344 196.320312 233.324219 195.785156 Z M 231.492188 214.011719 C 231.671875 212.269531 231.984375 210.261719 231.9375 208.027344 C 231.539062 203.871094 230.691406 201.054688 229.574219 198.820312 C 230.421875 201.859375 230.691406 204.988281 230.601562 207.890625 C 230.644531 209.902344 230.066406 213.296875 231.492188 214.011719 Z M 249.25 207.847656 C 244.074219 205.835938 239.570312 203.109375 235.640625 199.625 C 237.113281 201.90625 238.855469 203.960938 241.488281 205.34375 C 243.851562 206.730469 246.441406 207.535156 249.25 207.847656 Z M 258.664062 210.796875 C 257.148438 208.339844 252.820312 205.746094 249.832031 208.070312 C 251.082031 211.464844 254.738281 212.003906 258.664062 210.796875 Z M 232.785156 221.609375 C 234.035156 219.734375 234.394531 215.53125 231.761719 214.28125 C 229.707031 216.335938 230.464844 219.242188 232.785156 221.609375 Z M 199.277344 175.453125 C 199.726562 175.453125 200.082031 175.097656 200.082031 174.648438 C 200.082031 174.203125 199.726562 173.84375 199.277344 173.84375 C 198.832031 173.84375 198.476562 174.203125 198.476562 174.648438 C 198.476562 175.097656 198.832031 175.453125 199.277344 175.453125 Z M 202.269531 175.585938 C 202.757812 175.585938 203.160156 175.183594 203.160156 174.695312 C 203.160156 174.203125 202.757812 173.800781 202.269531 173.800781 C 201.777344 173.800781 201.375 174.203125 201.375 174.695312 C 201.332031 175.183594 201.734375 175.585938 202.269531 175.585938 Z M 205.347656 175.945312 C 205.925781 175.945312 206.417969 175.453125 206.417969 174.871094 C 206.417969 174.292969 205.925781 173.800781 205.347656 173.800781 C 204.765625 173.800781 204.277344 174.292969 204.277344 174.871094 C 204.277344 175.5 204.765625 175.945312 205.347656 175.945312 Z M 208.425781 176.4375 C 209.050781 176.4375 209.585938 175.898438 209.585938 175.273438 C 209.585938 174.648438 209.050781 174.113281 208.425781 174.113281 C 207.800781 174.113281 207.265625 174.648438 207.265625 175.273438 C 207.265625 175.898438 207.800781 176.4375 208.425781 176.4375 Z M 211.414062 177.152344 C 212.085938 177.152344 212.621094 176.613281 212.621094 175.945312 C 212.621094 175.273438 212.085938 174.738281 211.414062 174.738281 C 210.746094 174.738281 210.210938 175.273438 210.210938 175.945312 C 210.210938 176.613281 210.746094 177.152344 211.414062 177.152344 Z M 219.132812 180.191406 C 219.757812 180.191406 220.292969 179.652344 220.292969 179.027344 C 220.292969 178.402344 219.757812 177.867188 219.132812 177.867188 C 218.507812 177.867188 217.972656 178.402344 217.972656 179.027344 C 217.972656 179.652344 218.507812 180.191406 219.132812 180.191406 Z M 221.410156 181.261719 C 221.988281 181.261719 222.4375 180.816406 222.4375 180.234375 C 222.4375 179.652344 221.988281 179.207031 221.410156 179.207031 C 220.828125 179.207031 220.382812 179.652344 220.382812 180.234375 C 220.382812 180.769531 220.828125 181.261719 221.410156 181.261719 Z M 223.550781 182.46875 C 224.085938 182.46875 224.488281 182.066406 224.488281 181.53125 C 224.488281 180.992188 224.085938 180.59375 223.550781 180.59375 C 223.015625 180.59375 222.613281 180.992188 222.613281 181.53125 C 222.613281 182.066406 223.015625 182.46875 223.550781 182.46875 Z M 146.539062 200.476562 C 145.738281 203.246094 145.558594 209.410156 147.925781 213.835938 C 149.53125 217.140625 151.539062 220.222656 155.421875 222.191406 C 156.578125 222.59375 158.007812 221.742188 156.578125 220.984375 C 153.1875 218.882812 150.734375 216.382812 148.683594 213.34375 C 146.628906 209.679688 146.140625 205.300781 146.542969 200.476562 Z M 142.527344 204.183594 C 140.25 211.109375 136.234375 218.570312 128.113281 225.945312 C 125.882812 228.625 129.050781 229.519531 130.121094 227.910156 C 135.699219 221.117188 139.894531 213.253906 142.527344 204.183594 Z M 116.335938 183.496094 C 115.085938 189.304688 115.890625 194.039062 120.574219 197.257812 C 125.75 201.769531 137.171875 200.476562 139.847656 196.988281 C 137.796875 198.957031 127.355469 200.832031 122.222656 195.515625 C 118.386719 192.65625 117.183594 188.097656 116.335938 183.496094 Z M 155.375 189.082031 C 152.652344 191.582031 151.449219 194.488281 156.890625 199.089844 C 157.5625 199.847656 156.757812 201.191406 155.957031 199.625 C 155.6875 199.269531 155.152344 199.625 155.332031 199.984375 C 155.820312 201.144531 156.890625 201.414062 157.5625 200.742188 C 158.453125 199.3125 157.695312 197.660156 156.042969 195.960938 C 154.394531 193.726562 154.4375 191.40625 155.375 189.082031 Z M 141.675781 195.785156 C 139.222656 196.320312 136.949219 196.007812 134.984375 193.953125 C 133.558594 192.074219 132.085938 191.046875 130.523438 191.71875 C 129.765625 192.253906 129.855469 193.371094 130.925781 194.039062 C 131.28125 194.265625 131.683594 193.773438 131.414062 193.460938 C 130.03125 192.433594 131.460938 191.851562 132.085938 192.65625 C 135.699219 198.777344 138.777344 198.0625 141.675781 195.785156 Z M 143.507812 214.011719 C 144.890625 213.296875 144.355469 209.902344 144.398438 207.9375 C 144.265625 204.988281 144.535156 201.90625 145.425781 198.867188 C 144.308594 201.101562 143.460938 203.871094 143.0625 208.070312 C 143.015625 210.261719 143.328125 212.269531 143.507812 214.011719 Z M 125.75 207.847656 C 128.515625 207.535156 131.148438 206.730469 133.511719 205.390625 C 136.144531 204.003906 137.886719 201.949219 139.359375 199.671875 C 135.429688 203.066406 130.925781 205.835938 125.75 207.847656 Z M 116.335938 210.796875 C 120.261719 212.003906 123.917969 211.464844 125.167969 208.070312 C 122.179688 205.746094 117.898438 208.292969 116.335938 210.796875 Z M 142.214844 221.609375 C 144.535156 219.242188 145.292969 216.292969 143.238281 214.28125 C 140.605469 215.53125 140.964844 219.734375 142.214844 221.609375 Z M 175.722656 175.453125 C 176.167969 175.453125 176.523438 175.097656 176.523438 174.648438 C 176.523438 174.203125 176.167969 173.84375 175.722656 173.84375 C 175.273438 173.84375 174.917969 174.203125 174.917969 174.648438 C 174.917969 175.097656 175.273438 175.453125 175.722656 175.453125 Z M 172.730469 175.585938 C 173.222656 175.585938 173.625 175.183594 173.625 174.695312 C 173.625 174.203125 173.222656 173.800781 172.730469 173.800781 C 172.242188 173.800781 171.839844 174.203125 171.839844 174.695312 C 171.839844 175.183594 172.242188 175.585938 172.730469 175.585938 Z M 169.652344 175.945312 C 170.234375 175.945312 170.722656 175.453125 170.722656 174.871094 C 170.722656 174.292969 170.234375 173.800781 169.652344 173.800781 C 169.074219 173.800781 168.582031 174.292969 168.582031 174.871094 C 168.582031 175.5 169.074219 175.945312 169.652344 175.945312 Z M 166.574219 176.4375 C 167.199219 176.4375 167.734375 175.898438 167.734375 175.273438 C 167.734375 174.648438 167.199219 174.113281 166.574219 174.113281 C 165.949219 174.113281 165.414062 174.648438 165.414062 175.273438 C 165.457031 175.898438 165.949219 176.4375 166.574219 176.4375 Z M 163.628906 177.152344 C 164.300781 177.152344 164.835938 176.613281 164.835938 175.945312 C 164.835938 175.273438 164.300781 174.738281 163.628906 174.738281 C 162.960938 174.738281 162.425781 175.273438 162.425781 175.945312 C 162.425781 176.613281 162.960938 177.152344 163.628906 177.152344 Z M 155.867188 180.191406 C 156.492188 180.191406 157.027344 179.652344 157.027344 179.027344 C 157.027344 178.402344 156.492188 177.867188 155.867188 177.867188 C 155.242188 177.867188 154.707031 178.402344 154.707031 179.027344 C 154.707031 179.652344 155.242188 180.191406 155.867188 180.191406 Z M 153.589844 181.261719 C 154.171875 181.261719 154.617188 180.816406 154.617188 180.234375 C 154.617188 179.652344 154.171875 179.207031 153.589844 179.207031 C 153.011719 179.207031 152.5625 179.652344 152.5625 180.234375 C 152.5625 180.769531 153.054688 181.261719 153.589844 181.261719 Z M 151.449219 182.46875 C 151.984375 182.46875 152.386719 182.066406 152.386719 181.53125 C 152.386719 180.992188 151.984375 180.59375 151.449219 180.59375 C 150.914062 180.59375 150.511719 180.992188 150.511719 181.53125 C 150.511719 182.066406 150.914062 182.46875 151.449219 182.46875 Z M 225.515625 113.4375 C 225.023438 113.4375 224.621094 113.835938 224.621094 114.328125 C 224.621094 114.820312 225.023438 115.222656 225.515625 115.222656 C 226.003906 115.222656 226.40625 114.820312 226.40625 114.328125 C 226.40625 113.835938 226.003906 113.4375 225.515625 113.4375 Z M 269.597656 69.558594 C 258.53125 68.574219 250.902344 73.222656 243.449219 82.875 L 229.484375 101.90625 C 225.515625 106.867188 220.785156 111.691406 214.761719 115 C 219.804688 111.46875 225.960938 107.449219 227.835938 97.976562 C 228.90625 89.53125 225.066406 81.578125 219.578125 79.253906 C 215.699219 77.289062 209.183594 78.003906 204.902344 81.175781 C 212.441406 76.976562 220.652344 80.101562 223.328125 84.347656 C 227.65625 91.050781 227.121094 99.851562 223.90625 104.320312 C 223.59375 104.8125 223.238281 105.257812 222.882812 105.75 C 228.234375 94.3125 222.660156 81.398438 208.78125 82.023438 C 208.828125 82.785156 209.71875 84.078125 210.878906 84.660156 C 213.019531 85.957031 215.253906 87.074219 217.304688 88.59375 C 220.382812 90.738281 222.660156 93.417969 223.371094 97.171875 C 223.730469 100.121094 223.105469 103.382812 221.898438 106.914062 C 220.875 108.164062 219.757812 109.324219 218.554688 110.398438 C 219.535156 109.011719 220.117188 106.332031 219.9375 104.8125 C 219.042969 100.878906 217.347656 100.210938 215.921875 99.761719 C 214.09375 99.226562 212.621094 99.628906 211.460938 100.835938 C 210.210938 102.21875 210.300781 104.1875 211.414062 105.167969 C 212.976562 106.285156 214.492188 106.421875 215.832031 105.214844 C 213.558594 105.660156 211.816406 105.394531 211.324219 103.335938 C 211.28125 101.90625 212.128906 100.96875 213.46875 100.390625 C 215.832031 100.121094 217.347656 101.015625 218.375 102.488281 C 219.667969 104.367188 219.3125 107 218.464844 108.65625 C 217.75 110.128906 216.679688 111.289062 215.609375 112.183594 C 205.925781 117.949219 199.234375 120.496094 187.5 121.433594 C 175.765625 120.496094 169.074219 117.949219 159.390625 112.183594 C 158.277344 111.289062 157.203125 110.128906 156.535156 108.65625 C 155.6875 107 155.375 104.367188 156.625 102.488281 C 157.652344 101.015625 159.167969 100.121094 161.53125 100.390625 C 162.871094 100.96875 163.71875 101.90625 163.675781 103.335938 C 163.183594 105.347656 161.441406 105.660156 159.167969 105.214844 C 160.550781 106.421875 162.023438 106.285156 163.585938 105.167969 C 164.65625 104.230469 164.789062 102.265625 163.539062 100.835938 C 162.378906 99.628906 160.90625 99.226562 159.078125 99.761719 C 157.652344 100.164062 155.957031 100.878906 155.0625 104.8125 C 154.839844 106.332031 155.464844 109.011719 156.445312 110.398438 C 155.242188 109.28125 154.125 108.117188 153.101562 106.914062 C 151.894531 103.382812 151.269531 100.121094 151.628906 97.171875 C 152.386719 93.417969 154.660156 90.738281 157.695312 88.59375 C 159.792969 87.074219 161.980469 85.957031 164.121094 84.660156 C 165.28125 84.035156 166.171875 82.785156 166.21875 82.023438 C 152.339844 81.398438 146.765625 94.3125 152.117188 105.75 C 151.761719 105.304688 151.40625 104.8125 151.09375 104.320312 C 147.878906 99.851562 147.34375 91.050781 151.671875 84.347656 C 154.304688 80.148438 162.558594 77.019531 170.097656 81.175781 C 165.816406 78.003906 159.300781 77.289062 155.417969 79.253906 C 149.886719 81.578125 146.09375 89.53125 147.164062 97.976562 C 148.996094 107.402344 155.195312 111.46875 160.238281 115 C 154.214844 111.691406 149.484375 106.867188 145.515625 101.90625 L 131.503906 82.875 C 124.097656 73.222656 116.425781 68.574219 105.359375 69.558594 C 110.625 69.828125 115.488281 71.347656 119.816406 74.5625 C 124.8125 78.136719 129.183594 82.648438 133.15625 87.878906 C 137.214844 92.703125 140.070312 98.019531 144.042969 102.535156 C 142.527344 101.773438 139.757812 101.550781 138.242188 101.996094 C 134.449219 103.472656 134.003906 105.257812 133.78125 106.777344 C 133.511719 108.65625 134.136719 110.085938 135.519531 111.066406 C 137.125 112.140625 139.046875 111.738281 139.847656 110.488281 C 140.742188 108.742188 140.652344 107.226562 139.269531 106.0625 C 140.070312 108.253906 140.027344 110.085938 138.0625 110.84375 C 136.636719 111.066406 135.609375 110.398438 134.804688 109.101562 C 134.183594 106.734375 134.851562 105.125 136.191406 103.875 C 137.839844 102.308594 140.5625 102.265625 142.347656 102.847656 C 143.910156 103.335938 145.246094 104.230469 146.273438 105.214844 C 154.125 115.179688 165.371094 119.824219 171.882812 121.03125 C 163.449219 119.871094 155.242188 116.964844 147.34375 110.53125 C 149.933594 113.703125 153.769531 116.339844 158.5 118.304688 C 158.410156 118.304688 158.320312 118.261719 158.277344 118.261719 C 157.605469 118.261719 157.070312 118.796875 157.070312 119.46875 C 157.070312 120.136719 157.605469 120.675781 158.277344 120.675781 C 158.945312 120.675781 159.480469 120.136719 159.480469 119.46875 C 159.480469 119.019531 159.257812 118.664062 158.945312 118.441406 C 159.570312 118.707031 160.195312 118.929688 160.863281 119.15625 L 160.683594 119.15625 C 159.972656 119.15625 159.390625 119.734375 159.390625 120.449219 C 159.390625 121.164062 159.972656 121.746094 160.683594 121.746094 C 161.398438 121.746094 161.980469 121.164062 161.980469 120.449219 C 161.980469 119.960938 161.710938 119.558594 161.308594 119.332031 C 168.582031 121.792969 177.640625 122.730469 187.632812 121.703125 C 197.628906 122.730469 206.6875 121.792969 213.957031 119.332031 C 213.558594 119.558594 213.289062 119.960938 213.289062 120.449219 C 213.289062 121.164062 213.867188 121.746094 214.582031 121.746094 C 215.296875 121.746094 215.875 121.164062 215.875 120.449219 C 215.875 119.734375 215.296875 119.15625 214.582031 119.15625 L 214.40625 119.15625 C 215.074219 118.929688 215.699219 118.707031 216.324219 118.441406 C 216.011719 118.664062 215.789062 119.019531 215.789062 119.46875 C 215.789062 120.136719 216.324219 120.675781 216.992188 120.675781 C 217.660156 120.675781 218.195312 120.136719 218.195312 119.46875 C 218.195312 118.796875 217.660156 118.261719 216.992188 118.261719 C 216.902344 118.261719 216.8125 118.261719 216.769531 118.304688 C 221.5 116.339844 225.292969 113.703125 227.921875 110.53125 C 220.027344 116.964844 211.773438 119.871094 203.382812 121.03125 C 209.851562 119.824219 221.140625 115.179688 228.996094 105.214844 C 230.019531 104.230469 231.359375 103.335938 232.921875 102.847656 C 234.707031 102.21875 237.382812 102.308594 239.078125 103.875 C 240.417969 105.125 241.085938 106.734375 240.460938 109.101562 C 239.65625 110.351562 238.632812 111.066406 237.203125 110.84375 C 235.242188 110.039062 235.242188 108.253906 236 106.0625 C 234.570312 107.269531 234.527344 108.742188 235.417969 110.488281 C 236.222656 111.691406 238.140625 112.09375 239.746094 111.066406 C 241.128906 110.085938 241.710938 108.65625 241.488281 106.777344 C 241.265625 105.304688 240.863281 103.472656 237.027344 101.996094 C 235.507812 101.550781 232.785156 101.773438 231.226562 102.535156 C 235.195312 98.019531 238.007812 92.703125 242.113281 87.878906 C 246.082031 82.695312 250.457031 78.136719 255.453125 74.5625 C 259.46875 71.347656 264.332031 69.828125 269.597656 69.558594 Z M 228.414062 96.949219 C 228.859375 92.121094 228.371094 87.742188 226.273438 84.078125 C 224.21875 80.996094 221.765625 78.539062 218.375 76.441406 C 216.949219 75.679688 218.421875 74.832031 219.535156 75.234375 C 223.417969 77.199219 225.378906 80.28125 227.03125 83.589844 C 229.394531 88.011719 229.21875 94.179688 228.414062 96.949219 Z M 232.429688 93.238281 C 235.105469 84.167969 239.257812 76.304688 244.832031 69.515625 C 245.90625 67.90625 249.074219 68.753906 246.839844 71.480469 C 238.765625 78.898438 234.707031 86.3125 232.429688 93.238281 Z M 258.664062 113.925781 C 257.773438 109.324219 256.613281 104.765625 252.777344 101.953125 C 247.644531 96.589844 237.203125 98.511719 235.152344 100.476562 C 237.828125 96.949219 249.25 95.695312 254.425781 100.210938 C 259.109375 103.425781 259.914062 108.117188 258.664062 113.925781 Z M 219.625 108.386719 C 220.5625 106.0625 220.605469 103.738281 218.910156 101.460938 C 217.304688 99.761719 216.5 98.109375 217.394531 96.679688 C 218.0625 96.011719 219.132812 96.277344 219.625 97.441406 C 219.757812 97.84375 219.222656 98.15625 219 97.796875 C 218.195312 96.234375 217.394531 97.574219 218.0625 98.332031 C 223.550781 102.980469 222.347656 105.882812 219.625 108.386719 Z M 233.324219 101.640625 C 236.222656 99.359375 239.257812 98.644531 242.960938 104.765625 C 243.585938 105.570312 245.058594 104.992188 243.628906 103.964844 C 243.316406 103.652344 243.761719 103.203125 244.121094 103.382812 C 245.191406 104.050781 245.28125 105.167969 244.519531 105.707031 C 242.960938 106.375 241.488281 105.347656 240.058594 103.472656 C 238.050781 101.460938 235.777344 101.105469 233.324219 101.640625 Z M 231.449219 83.410156 C 231.625 85.152344 231.9375 87.164062 231.894531 89.398438 C 231.492188 93.550781 230.644531 96.367188 229.53125 98.601562 C 230.378906 95.5625 230.644531 92.433594 230.554688 89.53125 C 230.601562 87.519531 230.066406 84.125 231.449219 83.410156 Z M 249.207031 89.621094 C 244.03125 91.632812 239.523438 94.355469 235.597656 97.84375 C 237.070312 95.5625 238.808594 93.507812 241.441406 92.121094 C 243.851562 90.691406 246.441406 89.886719 249.207031 89.621094 Z M 258.621094 86.671875 C 257.101562 89.128906 252.777344 91.71875 249.785156 89.398438 C 251.035156 86 254.695312 85.464844 258.621094 86.671875 Z M 232.742188 75.8125 C 233.992188 77.691406 234.347656 81.890625 231.714844 83.140625 C 229.707031 81.132812 230.464844 78.226562 232.742188 75.8125 Z M 199.234375 121.96875 C 199.679688 121.96875 200.039062 122.328125 200.039062 122.773438 C 200.039062 123.222656 199.679688 123.578125 199.234375 123.578125 C 198.789062 123.578125 198.429688 123.222656 198.429688 122.773438 C 198.429688 122.328125 198.789062 121.96875 199.234375 121.96875 Z M 202.222656 121.835938 C 202.714844 121.835938 203.117188 122.238281 203.117188 122.730469 C 203.117188 123.222656 202.714844 123.621094 202.222656 123.621094 C 201.734375 123.621094 201.332031 123.222656 201.332031 122.730469 C 201.332031 122.238281 201.734375 121.835938 202.222656 121.835938 Z M 205.347656 121.476562 C 205.925781 121.476562 206.417969 121.96875 206.417969 122.550781 C 206.417969 123.132812 205.925781 123.621094 205.347656 123.621094 C 204.765625 123.621094 204.277344 123.132812 204.277344 122.550781 C 204.277344 121.96875 204.722656 121.476562 205.347656 121.476562 Z M 208.382812 120.988281 C 209.003906 120.988281 209.542969 121.523438 209.542969 122.148438 C 209.542969 122.773438 209.003906 123.308594 208.382812 123.308594 C 207.757812 123.308594 207.222656 122.773438 207.222656 122.148438 C 207.222656 121.523438 207.757812 120.988281 208.382812 120.988281 Z M 211.371094 120.273438 C 212.039062 120.273438 212.574219 120.808594 212.574219 121.476562 C 212.574219 122.148438 212.039062 122.683594 211.371094 122.683594 C 210.699219 122.683594 210.164062 122.148438 210.164062 121.476562 C 210.164062 120.851562 210.699219 120.273438 211.371094 120.273438 Z M 219.089844 117.277344 C 219.714844 117.277344 220.25 117.8125 220.25 118.441406 C 220.25 119.066406 219.714844 119.601562 219.089844 119.601562 C 218.464844 119.601562 217.929688 119.066406 217.929688 118.441406 C 217.972656 117.769531 218.464844 117.277344 219.089844 117.277344 Z M 221.363281 116.207031 C 221.945312 116.207031 222.390625 116.652344 222.390625 117.234375 C 222.390625 117.8125 221.945312 118.261719 221.363281 118.261719 C 220.785156 118.261719 220.339844 117.8125 220.339844 117.234375 C 220.339844 116.652344 220.785156 116.207031 221.363281 116.207031 Z M 223.507812 114.953125 C 224.042969 114.953125 224.445312 115.355469 224.445312 115.894531 C 224.445312 116.429688 224.042969 116.832031 223.507812 116.832031 C 222.972656 116.832031 222.570312 116.429688 222.570312 115.894531 C 222.570312 115.402344 223.015625 114.953125 223.507812 114.953125 Z M 146.539062 96.949219 C 145.738281 94.179688 145.558594 88.011719 147.925781 83.589844 C 149.53125 80.28125 151.539062 77.199219 155.417969 75.234375 C 156.578125 74.832031 158.007812 75.679688 156.578125 76.441406 C 153.1875 78.539062 150.734375 81.042969 148.683594 84.078125 C 146.585938 87.742188 146.09375 92.121094 146.539062 96.949219 Z M 142.527344 93.238281 C 140.25 86.3125 136.234375 78.851562 128.113281 71.480469 C 125.882812 68.800781 129.050781 67.90625 130.121094 69.515625 C 135.699219 76.304688 139.847656 84.167969 142.527344 93.238281 Z M 116.289062 113.925781 C 115.039062 108.117188 115.84375 103.382812 120.527344 100.164062 C 125.703125 95.652344 137.125 96.949219 139.804688 100.433594 C 137.75 98.46875 127.3125 96.589844 122.179688 101.90625 C 118.34375 104.765625 117.136719 109.324219 116.289062 113.925781 Z M 155.332031 108.386719 C 152.609375 105.882812 151.40625 102.980469 156.847656 98.378906 C 157.515625 97.617188 156.714844 96.277344 155.910156 97.84375 C 155.644531 98.199219 155.109375 97.84375 155.285156 97.484375 C 155.777344 96.324219 156.847656 96.054688 157.515625 96.726562 C 158.410156 98.15625 157.652344 99.808594 156 101.503906 C 154.347656 103.738281 154.394531 106.019531 155.332031 108.386719 Z M 141.632812 101.640625 C 139.179688 101.105469 136.902344 101.417969 134.941406 103.472656 C 133.511719 105.347656 132.039062 106.375 130.480469 105.707031 C 129.71875 105.167969 129.808594 104.050781 130.878906 103.382812 C 131.238281 103.160156 131.640625 103.652344 131.371094 103.964844 C 129.988281 104.992188 131.414062 105.570312 132.039062 104.765625 C 135.699219 98.644531 138.734375 99.359375 141.632812 101.640625 Z M 143.507812 83.410156 C 144.890625 84.125 144.355469 87.519531 144.398438 89.488281 C 144.265625 92.433594 144.535156 95.519531 145.425781 98.558594 C 144.308594 96.324219 143.460938 93.550781 143.0625 89.351562 C 143.015625 87.164062 143.328125 85.195312 143.507812 83.410156 Z M 125.75 89.621094 C 128.515625 89.933594 131.148438 90.738281 133.511719 92.078125 C 136.144531 93.464844 137.886719 95.519531 139.359375 97.796875 C 135.386719 94.355469 130.878906 91.585938 125.75 89.621094 Z M 116.335938 86.671875 C 120.261719 85.464844 123.917969 86 125.167969 89.398438 C 122.179688 91.71875 117.851562 89.128906 116.335938 86.671875 Z M 142.214844 75.8125 C 144.535156 78.183594 145.292969 81.132812 143.238281 83.140625 C 140.5625 81.890625 140.917969 77.734375 142.214844 75.8125 Z M 175.675781 121.96875 C 176.121094 121.96875 176.480469 122.328125 176.480469 122.773438 C 176.480469 123.222656 176.121094 123.578125 175.675781 123.578125 C 175.230469 123.578125 174.875 123.222656 174.875 122.773438 C 174.917969 122.328125 175.273438 121.96875 175.675781 121.96875 Z M 172.730469 121.835938 C 173.222656 121.835938 173.625 122.238281 173.625 122.730469 C 173.625 123.222656 173.222656 123.621094 172.730469 123.621094 C 172.242188 123.621094 171.839844 123.222656 171.839844 122.730469 C 171.839844 122.238281 172.242188 121.835938 172.730469 121.835938 Z M 169.609375 121.476562 C 170.1875 121.476562 170.679688 121.96875 170.679688 122.550781 C 170.679688 123.132812 170.1875 123.621094 169.609375 123.621094 C 169.027344 123.621094 168.539062 123.132812 168.539062 122.550781 C 168.539062 121.96875 169.027344 121.476562 169.609375 121.476562 Z M 166.574219 120.988281 C 167.199219 120.988281 167.734375 121.523438 167.734375 122.148438 C 167.734375 122.773438 167.199219 123.308594 166.574219 123.308594 C 165.949219 123.308594 165.414062 122.773438 165.414062 122.148438 C 165.414062 121.523438 165.90625 120.988281 166.574219 120.988281 Z M 163.585938 120.273438 C 164.253906 120.273438 164.789062 120.808594 164.789062 121.476562 C 164.789062 122.148438 164.253906 122.683594 163.585938 122.683594 C 162.914062 122.683594 162.378906 122.148438 162.378906 121.476562 C 162.378906 120.851562 162.914062 120.273438 163.585938 120.273438 Z M 155.820312 117.277344 C 156.445312 117.277344 156.980469 117.8125 156.980469 118.441406 C 156.980469 119.066406 156.445312 119.601562 155.820312 119.601562 C 155.195312 119.601562 154.660156 119.066406 154.660156 118.441406 C 154.707031 117.769531 155.195312 117.277344 155.820312 117.277344 Z M 153.589844 116.207031 C 154.171875 116.207031 154.617188 116.652344 154.617188 117.234375 C 154.617188 117.8125 154.171875 118.261719 153.589844 118.261719 C 153.011719 118.261719 152.5625 117.8125 152.5625 117.234375 C 152.5625 116.652344 153.011719 116.207031 153.589844 116.207031 Z M 151.40625 114.953125 C 151.941406 114.953125 152.339844 115.355469 152.339844 115.894531 C 152.339844 116.429688 151.941406 116.832031 151.40625 116.832031 C 150.867188 116.832031 150.46875 116.429688 150.46875 115.894531 C 150.46875 115.402344 150.914062 114.953125 151.40625 114.953125 Z M 151.40625 114.953125 " fill-opacity="1" fill-rule="evenodd"/></g><g fill="#d49b35" fill-opacity="1"><g transform="translate(94.78642, 247.577224)"><g><path d="M 0.371094 2.78125 L 0.585938 3.0625 C 6.039062 -0.21875 9.164062 -3.214844 9.164062 -6.582031 C 9.164062 -8.273438 7.992188 -10.359375 4.539062 -10.359375 C 3.324219 -10.359375 2.476562 -10.230469 1.671875 -9.992188 L 2.238281 -13.488281 L 4.929688 -13.488281 C 7.472656 -13.488281 8.296875 -15.289062 8.816406 -16.484375 L 8.535156 -16.617188 C 8.167969 -15.746094 7.472656 -15.203125 5.539062 -15.203125 L 2.195312 -15.203125 L 1.019531 -8.363281 L 1.238281 -8.210938 C 1.671875 -8.296875 2.496094 -8.515625 3.519531 -8.535156 C 5.496094 -8.558594 6.777344 -7.667969 6.777344 -5.800781 C 6.777344 -2.496094 3.628906 0.671875 0.371094 2.78125 Z M 0.371094 2.78125 "/></g></g></g><g fill="#d49b35" fill-opacity="1"><g transform="translate(115.161501, 247.577224)"><g><path d="M 1.128906 -5.234375 L 6.796875 -5.234375 L 6.796875 -5.582031 L 1.128906 -5.582031 Z M 1.128906 -5.234375 "/></g></g></g><g fill="#d49b35" fill-opacity="1"><g transform="translate(133.017471, 247.577224)"><g><path d="M 1.019531 0 L 12.011719 0 L 12.164062 -3.171875 L 11.878906 -3.214844 C 11.054688 -1 9.558594 -0.347656 7.363281 -0.347656 L 5.277344 -0.347656 C 4.582031 -0.347656 4.191406 -0.738281 4.191406 -1.433594 L 4.191406 -7.992188 L 6.277344 -7.992188 C 8.925781 -7.992188 9.6875 -7.472656 10.035156 -6.34375 L 10.339844 -6.34375 L 10.339844 -9.992188 L 10.035156 -9.992188 C 9.6875 -8.863281 8.925781 -8.339844 6.277344 -8.339844 L 4.191406 -8.339844 L 4.191406 -14.855469 L 6.734375 -14.855469 C 9.164062 -14.855469 10.535156 -14.203125 11.402344 -12.078125 L 11.683594 -12.140625 L 11.445312 -15.203125 L 1.019531 -15.203125 L 1.019531 -14.898438 C 1.738281 -14.660156 1.890625 -14.007812 1.890625 -12.445312 L 1.890625 -2.757812 C 1.890625 -1.195312 1.738281 -0.542969 1.019531 -0.304688 Z M 1.019531 0 "/></g></g></g><g fill="#d49b35" fill-opacity="1"><g transform="translate(155.868227, 247.577224)"><g><path d="M 0.914062 0 L 3.824219 0 L 3.824219 -0.304688 C 2.691406 -0.652344 2.171875 -1.410156 2.171875 -4.0625 L 2.171875 -13.074219 L 7.625 -4.125 L 8.125 -4.125 L 13.335938 -13.269531 L 13.335938 -2.757812 C 13.335938 -1.195312 13.183594 -0.542969 12.46875 -0.304688 L 12.46875 0 L 16.507812 0 L 16.507812 -0.304688 C 15.789062 -0.542969 15.636719 -1.195312 15.636719 -2.757812 L 15.636719 -11.140625 C 15.636719 -13.792969 16.117188 -14.550781 17.117188 -14.898438 L 17.117188 -15.203125 L 14.03125 -15.203125 L 8.925781 -6.296875 L 3.5625 -15.203125 L 0.304688 -15.203125 L 0.304688 -14.898438 C 1.304688 -14.550781 1.78125 -13.792969 1.78125 -11.140625 L 1.78125 -2.757812 C 1.78125 -1.195312 1.628906 -0.542969 0.914062 -0.304688 Z M 0.914062 0 "/></g></g></g><g fill="#d49b35" fill-opacity="1"><g transform="translate(183.930934, 247.577224)"><g><path d="M 1.019531 0 L 5.0625 0 L 5.0625 -0.304688 C 4.34375 -0.542969 4.191406 -1.195312 4.191406 -2.757812 L 4.191406 -5.972656 L 5.257812 -5.972656 C 9.707031 -5.972656 11.664062 -8.273438 11.664062 -10.992188 C 11.664062 -12.75 10.535156 -15.203125 5.582031 -15.203125 L 1.019531 -15.203125 L 1.019531 -14.898438 C 1.738281 -14.660156 1.890625 -14.007812 1.890625 -12.445312 L 1.890625 -2.757812 C 1.890625 -1.195312 1.738281 -0.542969 1.019531 -0.304688 Z M 4.191406 -6.320312 L 4.191406 -14.8125 C 4.34375 -14.835938 4.648438 -14.855469 4.867188 -14.855469 C 8.296875 -14.855469 9.210938 -12.292969 9.210938 -10.425781 C 9.210938 -7.972656 7.992188 -6.320312 5.148438 -6.320312 Z M 4.191406 -6.320312 "/></g></g></g><g fill="#d49b35" fill-opacity="1"><g transform="translate(205.999901, 247.577224)"><g><path d="M 1.019531 0 L 5.0625 0 L 5.0625 -0.304688 C 4.34375 -0.542969 4.191406 -1.195312 4.191406 -2.757812 L 4.191406 -12.445312 C 4.191406 -14.007812 4.34375 -14.660156 5.0625 -14.898438 L 5.0625 -15.203125 L 1.019531 -15.203125 L 1.019531 -14.898438 C 1.738281 -14.660156 1.890625 -14.007812 1.890625 -12.445312 L 1.890625 -2.757812 C 1.890625 -1.195312 1.738281 -0.542969 1.019531 -0.304688 Z M 1.019531 0 "/></g></g></g><g fill="#d49b35" fill-opacity="1"><g transform="translate(222.009968, 247.577224)"><g><path d="M 12.078125 0.152344 C 12.445312 0.152344 13.140625 0.128906 13.640625 0 L 13.640625 -0.304688 C 13.53125 -0.28125 13.421875 -0.28125 13.3125 -0.28125 C 12.511719 -0.28125 12.273438 -0.804688 11.121094 -3.691406 C 9.96875 -6.582031 9.492188 -7.601562 7.039062 -7.882812 C 9.925781 -8.230469 11.292969 -9.730469 11.292969 -11.730469 C 11.292969 -13.488281 10.316406 -15.203125 5.582031 -15.203125 L 1.019531 -15.203125 L 1.019531 -14.898438 C 1.738281 -14.660156 1.890625 -14.007812 1.890625 -12.445312 L 1.890625 -2.757812 C 1.890625 -1.195312 1.738281 -0.542969 1.019531 -0.304688 L 1.019531 0 L 5.0625 0 L 5.0625 -0.304688 C 4.34375 -0.542969 4.191406 -1.195312 4.191406 -2.757812 L 4.191406 -7.796875 L 5.472656 -7.796875 C 7.386719 -7.796875 7.492188 -6.734375 8.796875 -3.5625 C 9.839844 -1.019531 10.273438 0.152344 12.078125 0.152344 Z M 4.191406 -8.144531 L 4.191406 -14.792969 C 4.519531 -14.835938 4.84375 -14.855469 5.148438 -14.855469 C 7.863281 -14.855469 8.992188 -12.96875 8.992188 -11.207031 C 8.992188 -9.535156 8.058594 -8.144531 5.582031 -8.144531 Z M 4.191406 -8.144531 "/></g></g></g><g fill="#d49b35" fill-opacity="1"><g transform="translate(245.360208, 247.577224)"><g><path d="M 1.019531 0 L 12.011719 0 L 12.164062 -3.171875 L 11.878906 -3.214844 C 11.054688 -1 9.558594 -0.347656 7.363281 -0.347656 L 5.277344 -0.347656 C 4.582031 -0.347656 4.191406 -0.738281 4.191406 -1.433594 L 4.191406 -7.992188 L 6.277344 -7.992188 C 8.925781 -7.992188 9.6875 -7.472656 10.035156 -6.34375 L 10.339844 -6.34375 L 10.339844 -9.992188 L 10.035156 -9.992188 C 9.6875 -8.863281 8.925781 -8.339844 6.277344 -8.339844 L 4.191406 -8.339844 L 4.191406 -14.855469 L 6.734375 -14.855469 C 9.164062 -14.855469 10.535156 -14.203125 11.402344 -12.078125 L 11.683594 -12.140625 L 11.445312 -15.203125 L 1.019531 -15.203125 L 1.019531 -14.898438 C 1.738281 -14.660156 1.890625 -14.007812 1.890625 -12.445312 L 1.890625 -2.757812 C 1.890625 -1.195312 1.738281 -0.542969 1.019531 -0.304688 Z M 1.019531 0 "/></g></g></g><g fill="#d49b35" fill-opacity="1"><g transform="translate(268.210965, 247.577224)"><g><path d="M 6.210938 0.21875 C 8.710938 0.21875 11.445312 -1.433594 11.445312 -4.410156 C 11.445312 -7.015625 8.816406 -7.992188 6.601562 -8.839844 C 4.867188 -9.535156 2.671875 -10.316406 2.671875 -12.25 C 2.671875 -13.964844 4.039062 -14.988281 5.777344 -14.988281 C 7.882812 -14.988281 9.730469 -13.769531 10.621094 -11.535156 L 10.859375 -11.621094 L 10.773438 -14.445312 C 9.644531 -15.007812 8.210938 -15.355469 6.601562 -15.355469 C 3.191406 -15.355469 1.019531 -13.683594 1.019531 -10.992188 C 1.019531 -8.472656 2.890625 -7.730469 5.125 -6.796875 C 6.863281 -6.101562 9.664062 -5.105469 9.664062 -2.976562 C 9.664062 -1.195312 8.273438 -0.238281 6.777344 -0.238281 C 3.886719 -0.238281 1.953125 -2.148438 1.042969 -4.625 L 0.761719 -4.582031 L 0.847656 -1.324219 C 1.953125 -0.5 3.976562 0.21875 6.210938 0.21875 Z M 6.210938 0.21875 "/></g></g></g><g fill="#d49b35" fill-opacity="1"><g transform="translate(95.725343, 277.622763)"><g><path d="M 9.558594 0.21875 C 12.207031 0.21875 13.855469 -0.304688 15.007812 -0.824219 L 15.355469 -3.929688 L 15.074219 -3.976562 C 14.292969 -1.714844 12.621094 -0.238281 10.1875 -0.238281 C 5.953125 -0.238281 3.476562 -4.125 3.476562 -8.320312 C 3.476562 -12.640625 5.929688 -14.945312 9.40625 -14.945312 C 11.640625 -14.945312 13.878906 -13.597656 14.769531 -11.359375 L 15.03125 -11.425781 L 14.945312 -14.292969 C 13.8125 -15.050781 11.578125 -15.355469 9.96875 -15.355469 C 4.648438 -15.355469 1.171875 -11.730469 1.171875 -7.339844 C 1.171875 -2.476562 4.367188 0.21875 9.558594 0.21875 Z M 9.558594 0.21875 "/></g></g></g><g fill="#d49b35" fill-opacity="1"><g transform="translate(121.963872, 277.622763)"><g><path d="M 8.949219 0.21875 C 12.597656 0.21875 16.703125 -2.238281 16.703125 -7.535156 C 16.703125 -12.859375 12.621094 -15.378906 8.949219 -15.378906 C 4.34375 -15.378906 1.171875 -11.96875 1.171875 -7.667969 C 1.171875 -2.214844 5.257812 0.21875 8.949219 0.21875 Z M 3.433594 -8.992188 C 3.191406 -12.511719 4.867188 -14.8125 7.820312 -14.8125 C 11.578125 -14.8125 14.183594 -10.449219 14.507812 -5.820312 C 14.703125 -2.953125 13.511719 -0.457031 10.1875 -0.457031 C 6.496094 -0.457031 3.734375 -4.648438 3.433594 -8.992188 Z M 3.433594 -8.992188 "/></g></g></g><g fill="#d49b35" fill-opacity="1"><g transform="translate(149.700836, 277.622763)"><g><path d="M 12.46875 0.171875 L 12.75 0.171875 L 12.75 -12.445312 C 12.75 -14.007812 12.902344 -14.660156 13.617188 -14.898438 L 13.617188 -15.203125 L 10.6875 -15.203125 L 10.6875 -14.898438 C 11.816406 -14.550781 12.335938 -13.792969 12.335938 -11.140625 L 12.335938 -3.777344 L 3.214844 -15.203125 L 0.761719 -15.203125 L 0.761719 -14.898438 C 1.695312 -14.660156 1.890625 -14.007812 1.890625 -12.445312 L 1.890625 -2.757812 C 1.890625 -1.195312 1.738281 -0.542969 1.019531 -0.304688 L 1.019531 0 L 3.929688 0 L 3.929688 -0.304688 C 2.800781 -0.652344 2.28125 -1.410156 2.28125 -4.0625 L 2.28125 -12.683594 Z M 12.46875 0.171875 "/></g></g></g><g fill="#d49b35" fill-opacity="1"><g transform="translate(174.006593, 277.622763)"><g><path d="M 9.558594 0.21875 C 12.207031 0.21875 13.855469 -0.304688 15.007812 -0.824219 L 15.355469 -3.929688 L 15.074219 -3.976562 C 14.292969 -1.714844 12.621094 -0.238281 10.1875 -0.238281 C 5.953125 -0.238281 3.476562 -4.125 3.476562 -8.320312 C 3.476562 -12.640625 5.929688 -14.945312 9.40625 -14.945312 C 11.640625 -14.945312 13.878906 -13.597656 14.769531 -11.359375 L 15.03125 -11.425781 L 14.945312 -14.292969 C 13.8125 -15.050781 11.578125 -15.355469 9.96875 -15.355469 C 4.648438 -15.355469 1.171875 -11.730469 1.171875 -7.339844 C 1.171875 -2.476562 4.367188 0.21875 9.558594 0.21875 Z M 9.558594 0.21875 "/></g></g></g><g fill="#d49b35" fill-opacity="1"><g transform="translate(200.245122, 277.622763)"><g><path d="M 1.019531 0 L 12.011719 0 L 12.164062 -3.171875 L 11.878906 -3.214844 C 11.054688 -1 9.558594 -0.347656 7.363281 -0.347656 L 5.277344 -0.347656 C 4.582031 -0.347656 4.191406 -0.738281 4.191406 -1.433594 L 4.191406 -7.992188 L 6.277344 -7.992188 C 8.925781 -7.992188 9.6875 -7.472656 10.035156 -6.34375 L 10.339844 -6.34375 L 10.339844 -9.992188 L 10.035156 -9.992188 C 9.6875 -8.863281 8.925781 -8.339844 6.277344 -8.339844 L 4.191406 -8.339844 L 4.191406 -14.855469 L 6.734375 -14.855469 C 9.164062 -14.855469 10.535156 -14.203125 11.402344 -12.078125 L 11.683594 -12.140625 L 11.445312 -15.203125 L 1.019531 -15.203125 L 1.019531 -14.898438 C 1.738281 -14.660156 1.890625 -14.007812 1.890625 -12.445312 L 1.890625 -2.757812 C 1.890625 -1.195312 1.738281 -0.542969 1.019531 -0.304688 Z M 1.019531 0 "/></g></g></g><g fill="#d49b35" fill-opacity="1"><g transform="translate(223.095879, 277.622763)"><g><path d="M 1.019531 0 L 5.0625 0 L 5.0625 -0.304688 C 4.34375 -0.542969 4.191406 -1.195312 4.191406 -2.757812 L 4.191406 -5.972656 L 5.257812 -5.972656 C 9.707031 -5.972656 11.664062 -8.273438 11.664062 -10.992188 C 11.664062 -12.75 10.535156 -15.203125 5.582031 -15.203125 L 1.019531 -15.203125 L 1.019531 -14.898438 C 1.738281 -14.660156 1.890625 -14.007812 1.890625 -12.445312 L 1.890625 -2.757812 C 1.890625 -1.195312 1.738281 -0.542969 1.019531 -0.304688 Z M 4.191406 -6.320312 L 4.191406 -14.8125 C 4.34375 -14.835938 4.648438 -14.855469 4.867188 -14.855469 C 8.296875 -14.855469 9.210938 -12.292969 9.210938 -10.425781 C 9.210938 -7.972656 7.992188 -6.320312 5.148438 -6.320312 Z M 4.191406 -6.320312 "/></g></g></g><g fill="#d49b35" fill-opacity="1"><g transform="translate(245.164846, 277.622763)"><g><path d="M 4.082031 0 L 8.144531 0 L 8.144531 -0.304688 C 7.429688 -0.542969 7.277344 -1.195312 7.277344 -2.757812 L 7.277344 -14.8125 L 7.90625 -14.8125 C 9.839844 -14.8125 10.816406 -14.269531 11.621094 -12.53125 L 11.878906 -12.574219 L 11.75 -15.203125 L 0.433594 -15.203125 L 0.304688 -12.574219 L 0.566406 -12.53125 C 1.367188 -14.269531 2.347656 -14.8125 4.277344 -14.8125 L 4.953125 -14.8125 L 4.953125 -2.757812 C 4.953125 -1.195312 4.800781 -0.542969 4.082031 -0.304688 Z M 4.082031 0 "/></g></g></g><g fill="#d49b35" fill-opacity="1"><g transform="translate(267.255523, 277.622763)"><g><path d="M 6.210938 0.21875 C 8.710938 0.21875 11.445312 -1.433594 11.445312 -4.410156 C 11.445312 -7.015625 8.816406 -7.992188 6.601562 -8.839844 C 4.867188 -9.535156 2.671875 -10.316406 2.671875 -12.25 C 2.671875 -13.964844 4.039062 -14.988281 5.777344 -14.988281 C 7.882812 -14.988281 9.730469 -13.769531 10.621094 -11.535156 L 10.859375 -11.621094 L 10.773438 -14.445312 C 9.644531 -15.007812 8.210938 -15.355469 6.601562 -15.355469 C 3.191406 -15.355469 1.019531 -13.683594 1.019531 -10.992188 C 1.019531 -8.472656 2.890625 -7.730469 5.125 -6.796875 C 6.863281 -6.101562 9.664062 -5.105469 9.664062 -2.976562 C 9.664062 -1.195312 8.273438 -0.238281 6.777344 -0.238281 C 3.886719 -0.238281 1.953125 -2.148438 1.042969 -4.625 L 0.761719 -4.582031 L 0.847656 -1.324219 C 1.953125 -0.5 3.976562 0.21875 6.210938 0.21875 Z M 6.210938 0.21875 "/></g></g></g><g fill="#d49b35" fill-opacity="1"><g transform="translate(176.815535, 159.82811)"><g><path d="M 17.203125 -29.09375 C 17.203125 -25.59375 17.269531 -23.085938 17.40625 -21.578125 C 16.6875 -21.742188 14.300781 -21.828125 10.25 -21.828125 L 4.78125 -21.828125 L 4.171875 -11.890625 C 5.128906 -12.367188 6.050781 -12.742188 6.9375 -13.015625 C 7.832031 -13.296875 8.914062 -13.4375 10.1875 -13.4375 C 13.175781 -13.4375 15.441406 -12.707031 16.984375 -11.25 C 18.535156 -9.789062 19.3125 -7.878906 19.3125 -5.515625 C 19.3125 -2.972656 18.476562 -0.695312 16.8125 1.3125 C 15.144531 3.320312 13 4.875 10.375 5.96875 C 7.75 7.070312 5.0625 7.625 2.3125 7.625 L 2.3125 6.6875 C 4.40625 6.65625 6.367188 6.191406 8.203125 5.296875 C 10.046875 4.410156 11.539062 3.09375 12.6875 1.34375 C 13.84375 -0.40625 14.421875 -2.519531 14.421875 -5 C 14.421875 -7.15625 13.851562 -8.84375 12.71875 -10.0625 C 11.582031 -11.28125 9.984375 -11.890625 7.921875 -11.890625 C 7.097656 -11.890625 6.394531 -11.820312 5.8125 -11.6875 C 5.226562 -11.550781 4.523438 -11.328125 3.703125 -11.015625 L 3.1875 -11.328125 L 4.171875 -26.671875 C 4.859375 -26.535156 5.785156 -26.46875 6.953125 -26.46875 L 12.765625 -26.46875 C 13.691406 -26.46875 14.382812 -26.539062 14.84375 -26.6875 C 15.3125 -26.84375 15.628906 -27.097656 15.796875 -27.453125 C 15.972656 -27.816406 16.113281 -28.363281 16.21875 -29.09375 Z M 17.203125 -29.09375 "/></g></g></g></svg>